<svg version="1.1" id="el_wzNhZeGsi" xmlns="http://www.w3.org/2000/svg" xmlns:xlink="http://www.w3.org/1999/xlink" x="0px" y="0px" viewBox="0 0 250 250" style="enable-background:new 0 0 250 250;" xml:space="preserve"><style>@-webkit-keyframes kf_el_dl_i6zzAvy_an_1W8RP8fKw{0%{-webkit-transform: translate(-39.20000076293945px, 41.49999237060547px) translate(39.20000076293945px, -41.49999237060547px) translate(0px, 0px);transform: translate(-39.20000076293945px, 41.49999237060547px) translate(39.20000076293945px, -41.49999237060547px) translate(0px, 0px);}100%{-webkit-transform: translate(-39.20000076293945px, 41.49999237060547px) translate(39.20000076293945px, -41.49999237060547px) translate(50px, 0px);transform: translate(-39.20000076293945px, 41.49999237060547px) translate(39.20000076293945px, -41.49999237060547px) translate(50px, 0px);}}@keyframes kf_el_dl_i6zzAvy_an_1W8RP8fKw{0%{-webkit-transform: translate(-39.20000076293945px, 41.49999237060547px) translate(39.20000076293945px, -41.49999237060547px) translate(0px, 0px);transform: translate(-39.20000076293945px, 41.49999237060547px) translate(39.20000076293945px, -41.49999237060547px) translate(0px, 0px);}100%{-webkit-transform: translate(-39.20000076293945px, 41.49999237060547px) translate(39.20000076293945px, -41.49999237060547px) translate(50px, 0px);transform: translate(-39.20000076293945px, 41.49999237060547px) translate(39.20000076293945px, -41.49999237060547px) translate(50px, 0px);}}@-webkit-keyframes kf_el_KYZsjzMHUq_an_tBZGViI1q{0%{-webkit-transform: translate(126.10002136230469px, 72.20002746582031px) translate(-126.10002136230469px, -72.20002746582031px) translate(0px, 0px);transform: translate(126.10002136230469px, 72.20002746582031px) translate(-126.10002136230469px, -72.20002746582031px) translate(0px, 0px);}100%{-webkit-transform: translate(126.10002136230469px, 72.20002746582031px) translate(-126.10002136230469px, -72.20002746582031px) translate(-50px, 0px);transform: translate(126.10002136230469px, 72.20002746582031px) translate(-126.10002136230469px, -72.20002746582031px) translate(-50px, 0px);}}@keyframes kf_el_KYZsjzMHUq_an_tBZGViI1q{0%{-webkit-transform: translate(126.10002136230469px, 72.20002746582031px) translate(-126.10002136230469px, -72.20002746582031px) translate(0px, 0px);transform: translate(126.10002136230469px, 72.20002746582031px) translate(-126.10002136230469px, -72.20002746582031px) translate(0px, 0px);}100%{-webkit-transform: translate(126.10002136230469px, 72.20002746582031px) translate(-126.10002136230469px, -72.20002746582031px) translate(-50px, 0px);transform: translate(126.10002136230469px, 72.20002746582031px) translate(-126.10002136230469px, -72.20002746582031px) translate(-50px, 0px);}}#el_wzNhZeGsi *{-webkit-animation-duration: 2s;animation-duration: 2s;-webkit-animation-iteration-count: infinite;animation-iteration-count: infinite;-webkit-animation-timing-function: cubic-bezier(0, 0, 1, 1);animation-timing-function: cubic-bezier(0, 0, 1, 1);}#el_NOmnEPUsHR{fill: #8C8B8B;}#el_jFryeaB_F-{fill: #FFB829;}#el_hahjJNpmhC{fill: #8C8B8B;}#el_KYZsjzMHUq_an_tBZGViI1q{-webkit-animation-fill-mode: backwards;animation-fill-mode: backwards;-webkit-transform: translate(126.10002136230469px, 72.20002746582031px) translate(-126.10002136230469px, -72.20002746582031px) translate(0px, 0px);transform: translate(126.10002136230469px, 72.20002746582031px) translate(-126.10002136230469px, -72.20002746582031px) translate(0px, 0px);-webkit-animation-name: kf_el_KYZsjzMHUq_an_tBZGViI1q;animation-name: kf_el_KYZsjzMHUq_an_tBZGViI1q;-webkit-animation-timing-function: cubic-bezier(0, 0, 1, 1);animation-timing-function: cubic-bezier(0, 0, 1, 1);}#el_dl_i6zzAvy_an_1W8RP8fKw{-webkit-animation-fill-mode: backwards;animation-fill-mode: backwards;-webkit-transform: translate(-39.20000076293945px, 41.49999237060547px) translate(39.20000076293945px, -41.49999237060547px) translate(0px, 0px);transform: translate(-39.20000076293945px, 41.49999237060547px) translate(39.20000076293945px, -41.49999237060547px) translate(0px, 0px);-webkit-animation-name: kf_el_dl_i6zzAvy_an_1W8RP8fKw;animation-name: kf_el_dl_i6zzAvy_an_1W8RP8fKw;-webkit-animation-timing-function: cubic-bezier(0, 0, 1, 1);animation-timing-function: cubic-bezier(0, 0, 1, 1);}</style>

<g id="el_dl_i6zzAvy_an_1W8RP8fKw" data-animator-group="true" data-animator-type="0"><g id="el_dl_i6zzAvy">
	<path d="M-30.6,135.2c8.9,0.2,21.3,0.4,36.4,0.4c18.8-0.1,33-0.4,52.4-0.9c11.1-0.3,25.7-0.7,42.9-1.3&#10;&#9;&#9;c3.1-2.2,11.5-8.4,15.1-20.3c0.7-2.3,1.7-6.7,1.7-12.2c0-22.8-16.6-41.3-37.1-41.3c-5.3,0-10.4,1.2-14.9,3.5&#10;&#9;&#9;c-7.8-13-21.2-21.6-36.3-21.6C5.5,41.6-14,63.3-14,90.2c0,0.8,0.1,1.5,0.1,2.3c-1.3-0.3-2.8-0.5-4.3-0.5c-10.3,0-16.7,9.2-17,9.6&#10;&#9;&#9;c-3.7,5.6-4,11.7-4,13.8C-39.2,126.9-31.5,134.1-30.6,135.2z" id="el_NOmnEPUsHR"/>
</g></g>
<g id="el_s66eNF6F0h">
	<circle id="el_jFryeaB_F-" cx="130.7" cy="122" r="59.1"/>
</g>
<g id="el_KYZsjzMHUq_an_tBZGViI1q" data-animator-group="true" data-animator-type="0"><g id="el_KYZsjzMHUq">
	<path d="M313.6,160.1c0-2.5-0.3-9.7-4.8-16.4c-0.3-0.5-8-11.4-20.3-11.4c-1.8,0-3.5,0.2-5.1,0.6c0-0.9,0.1-1.8,0.1-2.7&#10;&#9;&#9;c0-32-23.3-58-52.1-58c-18,0-33.9,10.3-43.3,25.7c-5.4-2.7-11.5-4.1-17.8-4.1c-24.4,0-44.2,22.1-44.2,49.2c0,6.5,1.2,11.8,2,14.5&#10;&#9;&#9;c4.3,14.2,14.3,21.6,18,24.2c20.6,0.7,38,1.2,51.2,1.5c23.2,0.6,40.2,0.9,62.6,1.1c17.9,0,32.8-0.2,43.4-0.5&#10;&#9;&#9;C304.5,182.6,313.6,173.9,313.6,160.1z" id="el_hahjJNpmhC"/>
</g></g>
</svg>