<svg version="1.1" id="el_RcVMQklkP" xmlns="http://www.w3.org/2000/svg" xmlns:xlink="http://www.w3.org/1999/xlink" x="0px" y="0px" viewBox="0 0 250 250" style="enable-background:new 0 0 250 250;" xml:space="preserve"><style>@-webkit-keyframes kf_el_TYVFKaornX_an_ApaBsHNBB{0%{opacity: 1;}100%{opacity: 0.2;}}@keyframes kf_el_TYVFKaornX_an_ApaBsHNBB{0%{opacity: 1;}100%{opacity: 0.2;}}#el_RcVMQklkP *{-webkit-animation-duration: 2s;animation-duration: 2s;-webkit-animation-iteration-count: infinite;animation-iteration-count: infinite;-webkit-animation-timing-function: cubic-bezier(0, 0, 1, 1);animation-timing-function: cubic-bezier(0, 0, 1, 1);}#el_TYVFKaornX{fill: #F2ED3D;-webkit-animation-fill-mode: backwards;animation-fill-mode: backwards;opacity: 1;-webkit-animation-name: kf_el_TYVFKaornX_an_ApaBsHNBB;animation-name: kf_el_TYVFKaornX_an_ApaBsHNBB;-webkit-animation-timing-function: cubic-bezier(0, 0, 1, 1);animation-timing-function: cubic-bezier(0, 0, 1, 1);}#el_bGlPFn3XHm{fill: #4DABC1;}#el_G0clr-epeZ{fill: #4DABC1;}#el_kJl0FlAgGE{fill: #4DABC1;}#el_Hb8xvZRzXW{fill: #4DABC1;}#el_XTWVH9wM-t{fill: #4DABC1;}</style>

<polygon points="144.3,95 153.5,44.2 115.6,44.2 100.2,154.3 127.7,127.5 127.7,127.5 137.1,221.1 166.3,79.8 " id="el_TYVFKaornX"/>
<path id="el_bGlPFn3XHm" d="M74.7,85.1l-4.5-15.5l-4.2,15c-0.2,0.5-0.3,1-0.3,1.6c0,2.6,2,4.7,4.5,4.7s4.5-2.1,4.5-4.7&#10;&#9;c0-0.4,0-0.7-0.1-1.1H74.7z"/>
<path id="el_G0clr-epeZ" d="M102,59.7l-4.5-15.5l-4.2,15c-0.2,0.5-0.3,1-0.3,1.6c0,2.6,2,4.7,4.5,4.7s4.5-2.1,4.5-4.7&#10;&#9;c0-0.4,0-0.7-0.1-1.1H102z"/>
<path id="el_kJl0FlAgGE" d="M170.8,126.9l-4.5-15.5l-4.2,15c-0.2,0.5-0.3,1-0.3,1.6c0,2.6,2,4.7,4.5,4.7s4.5-2.1,4.5-4.7&#10;&#9;c0-0.4,0-0.7-0.1-1.1H170.8z"/>
<path id="el_Hb8xvZRzXW" d="M187.1,86.6l-4.5-15.5l-4.2,15c-0.2,0.5-0.3,1-0.3,1.6c0,2.6,2,4.7,4.5,4.7s4.5-2.1,4.5-4.7&#10;&#9;c0-0.4,0-0.7-0.1-1.1H187.1z"/>
<path id="el_XTWVH9wM-t" d="M89.7,129.9l-4.5-15.5l-4.2,15c-0.2,0.5-0.3,1-0.3,1.6c0,2.6,2,4.7,4.5,4.7s4.5-2.1,4.5-4.7&#10;&#9;c0-0.4,0-0.7-0.1-1.1H89.7z"/>
</svg>