<svg version="1.1" id="el_H1ryUqmRX" xmlns="http://www.w3.org/2000/svg" xmlns:xlink="http://www.w3.org/1999/xlink" x="0px" y="0px" viewBox="0 0 250 250" style="enable-background:new 0 0 250 250;" xml:space="preserve"><style>@-webkit-keyframes kf_el_yNZ9zC0c4c_an_LkeUMA5FZr{0%{opacity: 1;}83.33%{opacity: 0;}100%{opacity: 0;}}@keyframes kf_el_yNZ9zC0c4c_an_LkeUMA5FZr{0%{opacity: 1;}83.33%{opacity: 0;}100%{opacity: 0;}}@-webkit-keyframes kf_el_yNZ9zC0c4c_an_tW6T5dlSy{0%{-webkit-transform: translate(89.4000015258789px, 76.80000305175781px) translate(-89.4000015258789px, -76.80000305175781px) translate(0px, 0px);transform: translate(89.4000015258789px, 76.80000305175781px) translate(-89.4000015258789px, -76.80000305175781px) translate(0px, 0px);}100%{-webkit-transform: translate(89.4000015258789px, 76.80000305175781px) translate(-89.4000015258789px, -76.80000305175781px) translate(0px, 100px);transform: translate(89.4000015258789px, 76.80000305175781px) translate(-89.4000015258789px, -76.80000305175781px) translate(0px, 100px);}}@keyframes kf_el_yNZ9zC0c4c_an_tW6T5dlSy{0%{-webkit-transform: translate(89.4000015258789px, 76.80000305175781px) translate(-89.4000015258789px, -76.80000305175781px) translate(0px, 0px);transform: translate(89.4000015258789px, 76.80000305175781px) translate(-89.4000015258789px, -76.80000305175781px) translate(0px, 0px);}100%{-webkit-transform: translate(89.4000015258789px, 76.80000305175781px) translate(-89.4000015258789px, -76.80000305175781px) translate(0px, 100px);transform: translate(89.4000015258789px, 76.80000305175781px) translate(-89.4000015258789px, -76.80000305175781px) translate(0px, 100px);}}#el_H1ryUqmRX *{-webkit-animation-duration: 2s;animation-duration: 2s;-webkit-animation-iteration-count: infinite;animation-iteration-count: infinite;-webkit-animation-timing-function: cubic-bezier(0, 0, 1, 1);animation-timing-function: cubic-bezier(0, 0, 1, 1);}#el_PifMrL4XSg{fill: #4DABC1;}#el_dFCLMua0Pv{fill: #4DABC1;}#el_MCyIlB20FK{fill: #4DABC1;}#el_4r2M_aGZFp{fill: #4DABC1;}#el_WPCtcXGEQC{fill: #4DABC1;}#el_PAXZjL2k8O{fill: #4DABC1;}#el_uU4Jh9b0fU{fill: #4DABC1;}#el_HZBVlxIIcU{fill: #4DABC1;}#el_Mz7umljCNm{fill: #8C8B8B;}#el_yNZ9zC0c4c_an_tW6T5dlSy{-webkit-animation-fill-mode: backwards;animation-fill-mode: backwards;-webkit-transform: translate(89.4000015258789px, 76.80000305175781px) translate(-89.4000015258789px, -76.80000305175781px) translate(0px, 0px);transform: translate(89.4000015258789px, 76.80000305175781px) translate(-89.4000015258789px, -76.80000305175781px) translate(0px, 0px);-webkit-animation-name: kf_el_yNZ9zC0c4c_an_tW6T5dlSy;animation-name: kf_el_yNZ9zC0c4c_an_tW6T5dlSy;-webkit-animation-timing-function: cubic-bezier(0, 0, 1, 1);animation-timing-function: cubic-bezier(0, 0, 1, 1);}#el_yNZ9zC0c4c{-webkit-animation-fill-mode: backwards;animation-fill-mode: backwards;opacity: 1;-webkit-animation-name: kf_el_yNZ9zC0c4c_an_LkeUMA5FZr;animation-name: kf_el_yNZ9zC0c4c_an_LkeUMA5FZr;-webkit-animation-timing-function: cubic-bezier(0, 0, 1, 1);animation-timing-function: cubic-bezier(0, 0, 1, 1);}</style>

<g id="el_yNZ9zC0c4c_an_tW6T5dlSy" data-animator-group="true" data-animator-type="0"><g id="el_yNZ9zC0c4c">
	<path id="el_PifMrL4XSg" d="M114.3,127.4l-4.5-15.5l-4.2,15c-0.2,0.5-0.3,1-0.3,1.6c0,2.6,2,4.7,4.5,4.7s4.5-2.1,4.5-4.7&#10;&#9;&#9;C114.3,128.1,114.3,127.8,114.3,127.4L114.3,127.4z"/>
	<path id="el_dFCLMua0Pv" d="M152.5,148.8l-4.5-15.5l-4.2,15c-0.2,0.5-0.3,1-0.3,1.6c0,2.6,2,4.7,4.5,4.7s4.5-2.1,4.5-4.7&#10;&#9;&#9;c0-0.4,0-0.7-0.1-1.1H152.5z"/>
	<path id="el_MCyIlB20FK" d="M181.8,139.8l-4.5-15.5l-4.2,15c-0.2,0.5-0.3,1-0.3,1.6c0,2.6,2,4.7,4.5,4.7s4.5-2.1,4.5-4.7&#10;&#9;&#9;c0-0.4,0-0.7-0.1-1.1H181.8z"/>
	<path id="el_4r2M_aGZFp" d="M141.5,190.8l-4.5-15.5l-4.2,15c-0.2,0.5-0.3,1-0.3,1.6c0,2.6,2,4.7,4.5,4.7&#10;&#9;&#9;s4.5-2.1,4.5-4.7c0-0.4,0-0.7-0.1-1.1H141.5z"/>
	<path id="el_WPCtcXGEQC" d="M139,109l-4.5-15.5l-4.2,15c-0.2,0.5-0.3,1-0.3,1.6c0,2.6,2,4.7,4.5,4.7s4.5-2.1,4.5-4.7&#10;&#9;&#9;C139,109.7,139,109.4,139,109L139,109z"/>
	<path id="el_PAXZjL2k8O" d="M98.4,92.3l-4.5-15.5l-4.2,15c-0.2,0.5-0.3,1-0.3,1.6c0,2.6,2,4.7,4.5,4.7s4.5-2.1,4.5-4.7&#10;&#9;&#9;C98.4,93,98.4,92.7,98.4,92.3L98.4,92.3z"/>
	<path id="el_uU4Jh9b0fU" d="M105.3,172l-4.5-15.5l-4.2,15c-0.2,0.5-0.3,1-0.3,1.6c0,2.6,2,4.7,4.5,4.7s4.5-2.1,4.5-4.7&#10;&#9;&#9;C105.3,172.8,105.3,172.4,105.3,172L105.3,172z"/>
	<path id="el_HZBVlxIIcU" d="M169.8,94l-4.5-15.5l-4.2,15c-0.2,0.5-0.3,1-0.3,1.6c0,2.6,2,4.7,4.5,4.7s4.5-2.1,4.5-4.7&#10;&#9;&#9;c0-0.4,0-0.7-0.1-1.1H169.8z"/>
</g></g>
<g id="el_BkLDsuw7Cm">
	<path d="M220.3,97c0-2.1-0.3-8.2-4.5-13.9c-0.3-0.4-7.5-9.7-19.1-9.7c-1.7,0-3.3,0.2-4.8,0.5c0-0.8,0.1-1.5,0.1-2.3&#10;&#9;&#9;c0-27.1-22-49.1-49.1-49.1c-17,0-32,8.7-40.8,21.8C97,42,91.3,40.8,85.3,40.8c-23,0-41.7,18.7-41.7,41.7c0,5.5,1.1,10,1.9,12.3&#10;&#9;&#9;c4.1,12,13.5,18.3,17,20.5c19.4,0.6,35.8,1,48.3,1.3c21.9,0.5,37.9,0.8,59,0.9c16.9,0,30.9-0.2,40.9-0.4&#10;&#9;&#9;C211.7,116,220.3,108.7,220.3,97z" id="el_Mz7umljCNm"/>
</g>
</svg>