<svg version="1.1" id="el_Kjx8P1XE5" xmlns="http://www.w3.org/2000/svg" xmlns:xlink="http://www.w3.org/1999/xlink" x="0px" y="0px" viewBox="0 0 225 368" style="enable-background:new 0 0 225.1 368.5;" xml:space="preserve"><style>@-webkit-keyframes kf_el_Qmx46EnOR4f_an_p3Oxgi8QL{0%{-webkit-transform: translate(63.39453125px, 143.30078125px) translate(-63.39453125px, -143.30078125px) translate(0px, 0px);transform: translate(63.39453125px, 143.30078125px) translate(-63.39453125px, -143.30078125px) translate(0px, 0px);}100%{-webkit-transform: translate(63.39453125px, 143.30078125px) translate(-63.39453125px, -143.30078125px) translate(0px, 100px);transform: translate(63.39453125px, 143.30078125px) translate(-63.39453125px, -143.30078125px) translate(0px, 100px);}}@keyframes kf_el_Qmx46EnOR4f_an_p3Oxgi8QL{0%{-webkit-transform: translate(63.39453125px, 143.30078125px) translate(-63.39453125px, -143.30078125px) translate(0px, 0px);transform: translate(63.39453125px, 143.30078125px) translate(-63.39453125px, -143.30078125px) translate(0px, 0px);}100%{-webkit-transform: translate(63.39453125px, 143.30078125px) translate(-63.39453125px, -143.30078125px) translate(0px, 100px);transform: translate(63.39453125px, 143.30078125px) translate(-63.39453125px, -143.30078125px) translate(0px, 100px);}}@-webkit-keyframes kf_el_Qmx46EnOR4f_an_4FD0ojmV9{0%{opacity: 1;}100%{opacity: 0;}}@keyframes kf_el_Qmx46EnOR4f_an_4FD0ojmV9{0%{opacity: 1;}100%{opacity: 0;}}@-webkit-keyframes kf_el_bxcaAJU3meJ_an_eSPSyqw8h{0%{opacity: 1;}100%{opacity: 0;}}@keyframes kf_el_bxcaAJU3meJ_an_eSPSyqw8h{0%{opacity: 1;}100%{opacity: 0;}}@-webkit-keyframes kf_el_bxcaAJU3meJ_an_ro3Pohxhd{0%{-webkit-transform: translate(100.59375px, 191.1015625px) translate(-100.59375px, -191.1015625px) translate(0px, 0px);transform: translate(100.59375px, 191.1015625px) translate(-100.59375px, -191.1015625px) translate(0px, 0px);}100%{-webkit-transform: translate(100.59375px, 191.1015625px) translate(-100.59375px, -191.1015625px) translate(0px, 100px);transform: translate(100.59375px, 191.1015625px) translate(-100.59375px, -191.1015625px) translate(0px, 100px);}}@keyframes kf_el_bxcaAJU3meJ_an_ro3Pohxhd{0%{-webkit-transform: translate(100.59375px, 191.1015625px) translate(-100.59375px, -191.1015625px) translate(0px, 0px);transform: translate(100.59375px, 191.1015625px) translate(-100.59375px, -191.1015625px) translate(0px, 0px);}100%{-webkit-transform: translate(100.59375px, 191.1015625px) translate(-100.59375px, -191.1015625px) translate(0px, 100px);transform: translate(100.59375px, 191.1015625px) translate(-100.59375px, -191.1015625px) translate(0px, 100px);}}@-webkit-keyframes kf_el_DJjZR_poN7p_an_lGZUQW47f{0%{opacity: 1;}100%{opacity: 0;}}@keyframes kf_el_DJjZR_poN7p_an_lGZUQW47f{0%{opacity: 1;}100%{opacity: 0;}}@-webkit-keyframes kf_el_DJjZR_poN7p_an_zcrVq0VrN{0%{-webkit-transform: translate(143.29296875px, 166.30078125px) translate(-143.29296875px, -166.30078125px) translate(0px, 0px);transform: translate(143.29296875px, 166.30078125px) translate(-143.29296875px, -166.30078125px) translate(0px, 0px);}100%{-webkit-transform: translate(143.29296875px, 166.30078125px) translate(-143.29296875px, -166.30078125px) translate(0px, 100px);transform: translate(143.29296875px, 166.30078125px) translate(-143.29296875px, -166.30078125px) translate(0px, 100px);}}@keyframes kf_el_DJjZR_poN7p_an_zcrVq0VrN{0%{-webkit-transform: translate(143.29296875px, 166.30078125px) translate(-143.29296875px, -166.30078125px) translate(0px, 0px);transform: translate(143.29296875px, 166.30078125px) translate(-143.29296875px, -166.30078125px) translate(0px, 0px);}100%{-webkit-transform: translate(143.29296875px, 166.30078125px) translate(-143.29296875px, -166.30078125px) translate(0px, 100px);transform: translate(143.29296875px, 166.30078125px) translate(-143.29296875px, -166.30078125px) translate(0px, 100px);}}#el_Kjx8P1XE5 *{-webkit-animation-duration: 2s;animation-duration: 2s;-webkit-animation-iteration-count: infinite;animation-iteration-count: infinite;-webkit-animation-timing-function: cubic-bezier(0, 0, 1, 1);animation-timing-function: cubic-bezier(0, 0, 1, 1);}#el_WtODBrcnuO{enable-background: new;}#el_0eiJ5O8pHI{enable-background: new;}#el_-MQS-XMXS8{-webkit-clip-path: url(#SVGID_2_);clip-path: url(#SVGID_2_);enable-background: new;}#el_1E0pvS_GC_{fill: #808FAA;}#el_Ls_8THGlHn{enable-background: new;}#el_fh6GypHqGI{-webkit-clip-path: url(#SVGID_4_);clip-path: url(#SVGID_4_);enable-background: new;}#el_Osie17wHGQ{fill: #808FAA;}#el_vmI-88vZ4p{enable-background: new;}#el_RAjNKGrxS7Z{-webkit-clip-path: url(#SVGID_6_);clip-path: url(#SVGID_6_);enable-background: new;}#el_McwMW-YyLTk{fill: #808FAA;}#el_o92SGGbUQ8y{enable-background: new;}#el_LJwDG5ni5TN{-webkit-clip-path: url(#SVGID_8_);clip-path: url(#SVGID_8_);enable-background: new;}#el_wFadAEFovFg{fill: #808FAA;}#el_VefjSZxcxzB{enable-background: new;}#el_-dDQyhYUCFq{-webkit-clip-path: url(#SVGID_10_);clip-path: url(#SVGID_10_);enable-background: new;}#el_ek8ePiAjZDb{fill: #808FAA;}#el_2wXVaj_W8kI{enable-background: new;}#el_kT54RF2kFDI{-webkit-clip-path: url(#SVGID_12_);clip-path: url(#SVGID_12_);enable-background: new;}#el_EeK6Ij_36wx{fill: #808FAA;}#el_cPjvwbTgUbf{fill: #ACC0E3;}#el_YfQZWP4z2Mt{enable-background: new;}#el_f0tOdR_xAVb{enable-background: new;}#el_SHwBsjNqKeI{-webkit-clip-path: url(#SVGID_14_);clip-path: url(#SVGID_14_);enable-background: new;}#el_aYGyqs9-NxO{fill: #8696B1;}#el_0__UiAn9U4j{fill: #8494AF;}#el_KO4caP9HxkH{fill: #8292AC;}#el_j83AEG9zfbR{enable-background: new;}#el_hND2UQN_BiU{-webkit-clip-path: url(#SVGID_16_);clip-path: url(#SVGID_16_);enable-background: new;}#el_TAOD7byeZ8H{fill: #8292AC;}#el_QbP7A8EVq0s{fill: #808FAA;}#el_hwqrkk14av_{fill: #A4B7D8;}#el_QagCmLjXqE0{enable-background: new;}#el_RbZG_i6De7R{enable-background: new;}#el_zco1ZqagPg1{-webkit-clip-path: url(#SVGID_18_);clip-path: url(#SVGID_18_);enable-background: new;}#el_xw0jLVhmFqQ{fill: #8696B1;}#el_2iU7Lj74BA7{fill: #8494AF;}#el_F9k9xwrFA8M{fill: #8292AC;}#el_r2jTn3rucYZ{enable-background: new;}#el_r7P0m3vgStx{-webkit-clip-path: url(#SVGID_20_);clip-path: url(#SVGID_20_);enable-background: new;}#el_1x6AtQ9NW9z{fill: #8292AC;}#el_Vs_K6FQAoB0{fill: #808FAA;}#el_0aR6gsFjd9d{fill: #A4B7D8;}#el_b-QfeLzJ94Y{enable-background: new;}#el_ouGGhtaEIlj{enable-background: new;}#el_UTj-ilU30fL{-webkit-clip-path: url(#SVGID_22_);clip-path: url(#SVGID_22_);enable-background: new;}#el_-vm68JX6A9H{fill: #8696B1;}#el_G3a4sA5_O48{fill: #8494AF;}#el_01mjaKqTTQ7{fill: #8292AC;}#el_pqXRFnrf5h_{enable-background: new;}#el_HF1qbGsJ3Rn{-webkit-clip-path: url(#SVGID_24_);clip-path: url(#SVGID_24_);enable-background: new;}#el_8nO-74BsymH{fill: #8292AC;}#el_wEepNnpbalX{fill: #808FAA;}#el_WXElGCUl79I{fill: #A4B7D8;}#el_DJjZR_poN7p_an_zcrVq0VrN{-webkit-animation-fill-mode: backwards;animation-fill-mode: backwards;-webkit-transform: translate(143.29296875px, 166.30078125px) translate(-143.29296875px, -166.30078125px) translate(0px, 0px);transform: translate(143.29296875px, 166.30078125px) translate(-143.29296875px, -166.30078125px) translate(0px, 0px);-webkit-animation-name: kf_el_DJjZR_poN7p_an_zcrVq0VrN;animation-name: kf_el_DJjZR_poN7p_an_zcrVq0VrN;-webkit-animation-timing-function: cubic-bezier(0, 0, 1, 1);animation-timing-function: cubic-bezier(0, 0, 1, 1);}#el_DJjZR_poN7p{-webkit-animation-fill-mode: backwards;animation-fill-mode: backwards;opacity: 1;-webkit-animation-name: kf_el_DJjZR_poN7p_an_lGZUQW47f;animation-name: kf_el_DJjZR_poN7p_an_lGZUQW47f;-webkit-animation-timing-function: cubic-bezier(0, 0, 1, 1);animation-timing-function: cubic-bezier(0, 0, 1, 1);}#el_bxcaAJU3meJ_an_ro3Pohxhd{-webkit-animation-fill-mode: backwards;animation-fill-mode: backwards;-webkit-transform: translate(100.59375px, 191.1015625px) translate(-100.59375px, -191.1015625px) translate(0px, 0px);transform: translate(100.59375px, 191.1015625px) translate(-100.59375px, -191.1015625px) translate(0px, 0px);-webkit-animation-name: kf_el_bxcaAJU3meJ_an_ro3Pohxhd;animation-name: kf_el_bxcaAJU3meJ_an_ro3Pohxhd;-webkit-animation-timing-function: cubic-bezier(0, 0, 1, 1);animation-timing-function: cubic-bezier(0, 0, 1, 1);}#el_bxcaAJU3meJ{-webkit-animation-fill-mode: backwards;animation-fill-mode: backwards;opacity: 1;-webkit-animation-name: kf_el_bxcaAJU3meJ_an_eSPSyqw8h;animation-name: kf_el_bxcaAJU3meJ_an_eSPSyqw8h;-webkit-animation-timing-function: cubic-bezier(0, 0, 1, 1);animation-timing-function: cubic-bezier(0, 0, 1, 1);}#el_Qmx46EnOR4f{-webkit-animation-fill-mode: backwards;animation-fill-mode: backwards;opacity: 1;-webkit-animation-name: kf_el_Qmx46EnOR4f_an_4FD0ojmV9;animation-name: kf_el_Qmx46EnOR4f_an_4FD0ojmV9;-webkit-animation-timing-function: cubic-bezier(0, 0, 1, 1);animation-timing-function: cubic-bezier(0, 0, 1, 1);}#el_Qmx46EnOR4f_an_p3Oxgi8QL{-webkit-animation-fill-mode: backwards;animation-fill-mode: backwards;-webkit-transform: translate(63.39453125px, 143.30078125px) translate(-63.39453125px, -143.30078125px) translate(0px, 0px);transform: translate(63.39453125px, 143.30078125px) translate(-63.39453125px, -143.30078125px) translate(0px, 0px);-webkit-animation-name: kf_el_Qmx46EnOR4f_an_p3Oxgi8QL;animation-name: kf_el_Qmx46EnOR4f_an_p3Oxgi8QL;-webkit-animation-timing-function: cubic-bezier(0, 0, 1, 1);animation-timing-function: cubic-bezier(0, 0, 1, 1);}</style>

<g id="el_wetrsi_mtX">
	<g id="el_WtODBrcnuO">
		<g id="el_0eiJ5O8pHI">
			<g id="el_69AVmziSGh">
				<g id="el_ylkvxUU-wx">
					<defs>
						<path id="SVGID_1_" d="M30.3,47.8l10.4-4c0.4-0.2,0.7-0.3,1.1-0.4c3.2-0.9,6.4-0.7,9.3,0c6.4,1.6,11.3,5.8,12.1,6.4&#xA;&#9;&#9;&#9;&#9;&#9;&#9;&#9;c5.2,4.4,7.9,9.5,9.7,10c0.2,0.1,0.4,0,0.5,0l-10.4,4c-0.2,0.1-0.4,0.1-0.5,0c-1.8-0.5-4.5-5.6-9.7-10&#xA;&#9;&#9;&#9;&#9;&#9;&#9;&#9;c-0.7-0.6-5.7-4.8-12.1-6.4c-2.9-0.7-6.1-0.9-9.3,0C31,47.5,30.7,47.6,30.3,47.8z"/>
					</defs>
					<clipPath id="SVGID_2_">
						<use xlink:href="#SVGID_1_" style="overflow:visible;"/>
					</clipPath>
					<g id="el_-MQS-XMXS8">
						<path d="M30.3,47.8l10.4-4c0.4-0.2,0.7-0.3,1.1-0.4c3.2-0.9,6.4-0.7,9.3,0c6.4,1.6,11.3,5.8,12.1,6.4&#xA;&#9;&#9;&#9;&#9;&#9;&#9;&#9;c5.2,4.4,7.9,9.5,9.7,10c0.2,0.1,0.4,0,0.5,0l-10.4,4c-0.2,0.1-0.4,0.1-0.5,0c-1.8-0.5-4.5-5.6-9.7-10&#xA;&#9;&#9;&#9;&#9;&#9;&#9;&#9;c-0.7-0.6-5.7-4.8-12.1-6.4c-2.9-0.7-6.1-0.9-9.3,0C31,47.5,30.7,47.6,30.3,47.8" id="el_1E0pvS_GC_"/>
					</g>
				</g>
			</g>
		</g>
		<g id="el_Ls_8THGlHn">
			<g id="el_ONHp1FVuh1">
				<g id="el_bmrqcesVGZ">
					<defs>
						<path id="SVGID_3_" d="M75.8,37.1l10.5-4c5.5-2.1,11.6-1,14.1-0.5c0.4,0.1,1,0.2,1.7,0.4l-10.5,4.1c-0.8-0.2-1.3-0.3-1.7-0.4&#xA;&#9;&#9;&#9;&#9;&#9;&#9;&#9;C87.3,36.1,81.2,35,75.8,37.1z"/>
					</defs>
					<clipPath id="SVGID_4_">
						<use xlink:href="#SVGID_3_" style="overflow:visible;"/>
					</clipPath>
					<g id="el_fh6GypHqGI">
						<path d="M75.8,37.1l10.5-4c5.5-2.1,11.6-1,14.1-0.5c0.4,0.1,1,0.2,1.7,0.4l-10.5,4.1c-0.8-0.2-1.3-0.3-1.7-0.4&#xA;&#9;&#9;&#9;&#9;&#9;&#9;&#9;C87.3,36.1,81.2,35,75.8,37.1" id="el_Osie17wHGQ"/>
					</g>
				</g>
			</g>
		</g>
		<g id="el_vmI-88vZ4p">
			<g id="el_UIfDdgjiSZ">
				<g id="el_8qG89wWGUv">
					<defs>
						<path id="SVGID_5_" d="M132.6,81.5l-10.5,4c-0.1,0-0.1,0-0.2,0l10.4-4C132.5,81.5,132.6,81.5,132.6,81.5z"/>
					</defs>
					<clipPath id="SVGID_6_">
						<use xlink:href="#SVGID_5_" style="overflow:visible;"/>
					</clipPath>
					<g id="el_RAjNKGrxS7Z">
						<path d="M122.1,85.5l10.4-4c0.1,0,0.1,0,0.2,0L122.1,85.5L122.1,85.5" id="el_McwMW-YyLTk"/>
					</g>
				</g>
			</g>
		</g>
		<g id="el_o92SGGbUQ8y">
			<g id="el_qAD3Art1VUb">
				<g id="el_XcX5XizYAn5">
					<defs>
						<path id="SVGID_7_" d="M91.5,37l10.4-4c2.9,0.7,8.6,2.7,14.7,7.7c3.4,2.8,9.5,7.8,13.3,17.1c0.8,2,3.6,9,3.1,17&#xA;&#9;&#9;&#9;&#9;&#9;&#9;&#9;c-0.3,3.8-1.1,6.3-0.6,6.8L122,85.5c-0.5-0.5,0.4-2.9,0.6-6.8c0.5-8-2.3-15-3.1-17c-3.8-9.3-9.9-14.3-13.3-17.1&#xA;&#9;&#9;&#9;&#9;&#9;&#9;&#9;C100.2,39.6,94.5,37.7,91.5,37z"/>
					</defs>
					<clipPath id="SVGID_8_">
						<use xlink:href="#SVGID_7_" style="overflow:visible;"/>
					</clipPath>
					<g id="el_LJwDG5ni5TN">
						<path d="M91.5,37l10.4-4c2.9,0.7,8.6,2.7,14.7,7.7c3.4,2.8,9.5,7.8,13.3,17.1c0.8,2,3.6,9,3.1,17&#xA;&#9;&#9;&#9;&#9;&#9;&#9;&#9;c-0.3,3.8-1.1,6.3-0.6,6.8L122,85.5c-0.5-0.5,0.4-2.9,0.6-6.8c0.5-8-2.3-15-3.1-17c-3.8-9.3-9.9-14.3-13.3-17.1&#xA;&#9;&#9;&#9;&#9;&#9;&#9;&#9;C100.2,39.6,94.5,37.7,91.5,37" id="el_wFadAEFovFg"/>
					</g>
				</g>
			</g>
		</g>
		<g id="el_VefjSZxcxzB">
			<g id="el_oBPZpQ0pVb_">
				<g id="el_A4MEHzMu3ly">
					<defs>
						<path id="SVGID_9_" d="M135.6,70.3l10.4-4c3.9-1.5,8-1.2,11.5-0.3c4.9,1.3,8.7,3.7,9.1,3.9c2.4,1.5,7.7,5.1,11.4,12.7&#xA;&#9;&#9;&#9;&#9;&#9;&#9;&#9;c0.9,1.8,4.2,8.6,3.4,15.9c-0.9,8.4-6.6,11.7-5.6,13.6c0.1,0.2,0.3,0.4,0.5,0.5c0.5,0.2,1.4-0.1,2.6-0.5l-10.4,4&#xA;&#9;&#9;&#9;&#9;&#9;&#9;&#9;c-1.1,0.5-2,0.7-2.6,0.5c-0.3-0.1-0.4-0.2-0.5-0.5c-1.1-1.8,4.7-5.2,5.6-13.6c0.8-7.3-2.6-14.1-3.4-15.9&#xA;&#9;&#9;&#9;&#9;&#9;&#9;&#9;c-3.7-7.5-9-11.2-11.4-12.7c-0.4-0.3-4.1-2.7-9.1-3.9C143.5,69.2,139.4,68.8,135.6,70.3z"/>
					</defs>
					<clipPath id="SVGID_10_">
						<use xlink:href="#SVGID_9_" style="overflow:visible;"/>
					</clipPath>
					<g id="el_-dDQyhYUCFq">
						<path d="M135.6,70.3l10.4-4c3.9-1.5,8-1.2,11.5-0.3c4.9,1.3,8.7,3.7,9.1,3.9c2.4,1.5,7.7,5.1,11.4,12.7&#xA;&#9;&#9;&#9;&#9;&#9;&#9;&#9;c0.9,1.8,4.2,8.6,3.4,15.9c-0.9,8.4-6.6,11.7-5.6,13.6c0.1,0.2,0.3,0.4,0.5,0.5c0.5,0.2,1.4-0.1,2.6-0.5l-10.4,4&#xA;&#9;&#9;&#9;&#9;&#9;&#9;&#9;c-1.1,0.5-2,0.7-2.6,0.5c-0.3-0.1-0.4-0.2-0.5-0.5c-1.1-1.8,4.7-5.2,5.6-13.6c0.8-7.3-2.6-14.1-3.4-15.9&#xA;&#9;&#9;&#9;&#9;&#9;&#9;&#9;c-3.7-7.5-9-11.2-11.4-12.7c-0.4-0.3-4.1-2.7-9.1-3.9C143.5,69.2,139.4,68.8,135.6,70.3" id="el_ek8ePiAjZDb"/>
					</g>
				</g>
			</g>
		</g>
		<g id="el_2wXVaj_W8kI">
			<g id="el_EG0OU-p7_Wn">
				<g id="el_hgsQeVyhjwW">
					<defs>
						<path id="SVGID_11_" d="M170.6,115.1l10.4-4c0.3-0.1,0.5-0.2,0.8-0.3c2.5-0.9,5.6-1.7,8.6-0.9c0.7,0.2,1.4,0.5,2.1,0.8&#xA;&#9;&#9;&#9;&#9;&#9;&#9;&#9;c7.1,3.6,12.4,15.9,12.5,25.9c0.1,11.3-6.7,17.8-8.7,19.9c-2,2.1-4.3,3.5-6.8,4.4l-10.4,4c2.5-1,4.7-2.4,6.8-4.4&#xA;&#9;&#9;&#9;&#9;&#9;&#9;&#9;c2.1-2.1,8.8-8.6,8.7-19.9c0-10-5.4-22.3-12.5-25.9c-0.7-0.4-1.4-0.6-2.1-0.8c-3.1-0.8-6.2,0-8.6,0.9&#xA;&#9;&#9;&#9;&#9;&#9;&#9;&#9;C171.1,114.9,170.8,115,170.6,115.1z"/>
					</defs>
					<clipPath id="SVGID_12_">
						<use xlink:href="#SVGID_11_" style="overflow:visible;"/>
					</clipPath>
					<g id="el_kT54RF2kFDI">
						<path d="M170.6,115.1l10.4-4c0.3-0.1,0.5-0.2,0.8-0.3c2.5-0.9,5.6-1.7,8.6-0.9c0.7,0.2,1.4,0.5,2.1,0.8&#xA;&#9;&#9;&#9;&#9;&#9;&#9;&#9;c7.1,3.6,12.4,15.9,12.5,25.9c0.1,11.3-6.7,17.8-8.7,19.9c-2,2.1-4.3,3.5-6.8,4.4l-10.4,4c2.5-1,4.7-2.4,6.8-4.4&#xA;&#9;&#9;&#9;&#9;&#9;&#9;&#9;c2.1-2.1,8.8-8.6,8.7-19.9c0-10-5.4-22.3-12.5-25.9c-0.7-0.4-1.4-0.6-2.1-0.8c-3.1-0.8-6.2,0-8.6,0.9&#xA;&#9;&#9;&#9;&#9;&#9;&#9;&#9;C171.1,114.9,170.8,115,170.6,115.1" id="el_EeK6Ij_36wx"/>
					</g>
				</g>
			</g>
		</g>
		<g id="el_LSoLDL1kzVQ">
			<path d="M91.5,37c2.9,0.7,8.6,2.7,14.7,7.7c3.4,2.8,9.5,7.8,13.3,17.1c0.8,2,3.6,9,3.1,17c-0.3,3.8-1.1,6.3-0.6,6.8&#xA;&#9;&#9;&#9;&#9;c1.1,0.3,3.9-9.5,11-14c4.6-2.8,9.7-2.6,13.9-1.5c4.9,1.3,8.7,3.7,9.1,3.9c2.4,1.5,7.7,5.1,11.4,12.7c0.9,1.8,4.2,8.6,3.4,15.9&#xA;&#9;&#9;&#9;&#9;c-0.9,8.4-6.6,11.7-5.6,13.6c0.1,0.2,0.3,0.4,0.5,0.5c1,0.3,3-0.8,5.5-1.7s5.6-1.7,8.6-0.9c0.7,0.2,1.4,0.5,2.1,0.8&#xA;&#9;&#9;&#9;&#9;c7.1,3.6,12.4,15.9,12.5,25.9c0.1,11.3-6.7,17.8-8.7,19.9c-7.1,6.9-15.7,7.3-32,3.2c-12.3-3.2-29.1-8.8-52.8-16.2&#xA;&#9;&#9;&#9;&#9;c-37.8-11.8-56.4-16.5-70.7-35.6C27.4,108.4,20.7,99.2,18,86c-0.8-3.3-4.1-20,3.7-31.1c1.1-1.6,4.1-5.9,9.6-7.4&#xA;&#9;&#9;&#9;&#9;c3.2-0.9,6.4-0.7,9.3,0c6.4,1.6,11.3,5.8,12.1,6.4c5.2,4.4,7.9,9.5,9.7,10c0.2,0.1,0.4,0,0.6-0.1c1.4-0.7-0.2-5,0.7-10.6&#xA;&#9;&#9;&#9;&#9;c1.1-6.6,4.7-10.1,6.1-11.7c6.1-7.3,16.5-5.4,20-4.8C90.2,36.7,90.8,36.7,91.5,37z" id="el_cPjvwbTgUbf"/>
		</g>
	</g>
</g>
<g id="el_Qmx46EnOR4f_an_p3Oxgi8QL" data-animator-group="true" data-animator-type="0"><g id="el_Qmx46EnOR4f">
	<g id="el_YfQZWP4z2Mt">
		<g id="el_f0tOdR_xAVb">
			<g id="el_5Twgvz0qlNe">
				<g id="el_sIx6KvXYRvk">
					<defs>
						<path id="SVGID_13_" d="M66.7,145.4l3.5-2h0.1L66.7,145.4C66.7,145.3,66.7,145.3,66.7,145.4z"/>
					</defs>
					<clipPath id="SVGID_14_">
						<use xlink:href="#SVGID_13_" style="overflow:visible;"/>
					</clipPath>
					<g id="el_SHwBsjNqKeI">
						<path d="M66.7,145.4l3.5-2l0,0L66.7,145.4C66.7,145.3,66.7,145.3,66.7,145.4" id="el_aYGyqs9-NxO"/>
						<path d="M66.7,145.3l3.5-2l0,0L66.7,145.3L66.7,145.3" id="el_0__UiAn9U4j"/>
						<path d="M66.8,145.4l3.5-2l0,0L66.8,145.4L66.8,145.4" id="el_KO4caP9HxkH"/>
					</g>
				</g>
			</g>
		</g>
		<g id="el_j83AEG9zfbR">
			<g id="el_KXdyy3OAWSd">
				<g id="el_Ste3BwVw8Kz">
					<defs>
						<path id="SVGID_15_" d="M71.8,164l-3.5,2c0.2-0.1,0.4-0.3,0.6-0.5c0.4-0.5,0.6-1.3,0.1-5.7c-0.3-2.3-0.6-4-0.6-4.4&#xA;&#9;&#9;&#9;&#9;&#9;&#9;&#9;c-1.2-7-1.1-9.8-1.6-10.1l3.5-2c0.5,0.3,0.4,3.1,1.6,10.1c0.1,0.3,0.4,2.1,0.6,4.4c0.5,4.3,0.3,5.2-0.1,5.7&#xA;&#9;&#9;&#9;&#9;&#9;&#9;&#9;C72.3,163.6,72.1,163.8,71.8,164z"/>
					</defs>
					<clipPath id="SVGID_16_">
						<use xlink:href="#SVGID_15_" style="overflow:visible;"/>
					</clipPath>
					<g id="el_hND2UQN_BiU">
						<path d="M66.8,145.4l3.5-2l0,0L66.8,145.4L66.8,145.4" id="el_TAOD7byeZ8H"/>
						<path d="M66.8,145.4l3.5-2c0.4,0.4,0.4,3.2,1.5,10.1c0.1,0.3,0.4,2.1,0.6,4.4c0.5,4.3,0.3,5.2-0.1,5.7&#xA;&#9;&#9;&#9;&#9;&#9;&#9;&#9;c-0.2,0.2-0.4,0.4-0.6,0.5l-3.5,2c0.2-0.1,0.4-0.3,0.6-0.5c0.4-0.5,0.6-1.3,0.1-5.7c-0.3-2.3-0.6-4-0.6-4.4&#xA;&#9;&#9;&#9;&#9;&#9;&#9;&#9;C67.2,148.6,67.2,145.8,66.8,145.4" id="el_QbP7A8EVq0s"/>
					</g>
				</g>
			</g>
		</g>
		<g id="el_OpFXiQppbOl">
			<path d="M66.8,145.4c0.5,0.3,0.4,3.1,1.6,10.1c0.1,0.3,0.4,2.1,0.6,4.4c0.5,4.3,0.3,5.2-0.1,5.7&#xA;&#9;&#9;&#9;&#9;c-0.5,0.7-1.5,1.1-2.5,0.5c-0.1,0-0.2-0.1-0.3-0.2c-1.3-0.9-1.9-2.9-2.2-3.8c-0.3-0.9-0.7-2.4-0.4-4.9c0.2-2.1,0.8-3.1,1.2-4.4&#xA;&#9;&#9;&#9;&#9;C66.4,148.3,66.3,145.1,66.8,145.4z" id="el_hwqrkk14av_"/>
		</g>
	</g>
</g></g>
<g id="el_bxcaAJU3meJ_an_ro3Pohxhd" data-animator-group="true" data-animator-type="0"><g id="el_bxcaAJU3meJ">
	<g id="el_QagCmLjXqE0">
		<g id="el_RbZG_i6De7R">
			<g id="el_OvF7Fq6O9xg">
				<g id="el__igfcUizSPu">
					<defs>
						<polygon id="SVGID_17_" points="103.9,193.1 107.4,191.1 107.5,191.1 104,193.1 &#9;&#9;&#9;&#9;&#9;&#9;"/>
					</defs>
					<clipPath id="SVGID_18_">
						<use xlink:href="#SVGID_17_" style="overflow:visible;"/>
					</clipPath>
					<g id="el_zco1ZqagPg1">
						<path d="M103.9,193.1l3.5-2l0,0L103.9,193.1L103.9,193.1" id="el_xw0jLVhmFqQ"/>
						<path d="M103.9,193.1l3.5-2l0,0L103.9,193.1C104,193.1,104,193.1,103.9,193.1" id="el_2iU7Lj74BA7"/>
						<path d="M104,193.1l3.5-2l0,0L104,193.1L104,193.1" id="el_F9k9xwrFA8M"/>
					</g>
				</g>
			</g>
		</g>
		<g id="el_r2jTn3rucYZ">
			<g id="el_zIS_BoYoWmr">
				<g id="el_yka0kSwDYtn">
					<defs>
						<path id="SVGID_19_" d="M109.1,211.7l-3.5,2c0.2-0.1,0.4-0.3,0.6-0.5c0.4-0.5,0.6-1.3,0.1-5.7c-0.3-2.3-0.6-4-0.6-4.4&#xA;&#9;&#9;&#9;&#9;&#9;&#9;&#9;c-1.2-7-1.1-9.8-1.6-10.1l3.5-2c0.5,0.3,0.4,3.1,1.6,10.1c0.1,0.3,0.4,2.1,0.6,4.4c0.5,4.3,0.3,5.2-0.1,5.7&#xA;&#9;&#9;&#9;&#9;&#9;&#9;&#9;C109.5,211.4,109.3,211.6,109.1,211.7z"/>
					</defs>
					<clipPath id="SVGID_20_">
						<use xlink:href="#SVGID_19_" style="overflow:visible;"/>
					</clipPath>
					<g id="el_r7P0m3vgStx">
						<path d="M104,193.1l3.5-2l0,0L104,193.1L104,193.1" id="el_1x6AtQ9NW9z"/>
						<path d="M104,193.2l3.5-2c0.4,0.4,0.4,3.2,1.5,10.1c0.1,0.3,0.4,2.1,0.6,4.4c0.5,4.3,0.3,5.2-0.1,5.7&#xA;&#9;&#9;&#9;&#9;&#9;&#9;&#9;c-0.2,0.2-0.4,0.4-0.6,0.5l-3.5,2c0.2-0.1,0.4-0.3,0.6-0.5c0.4-0.5,0.6-1.3,0.1-5.7c-0.3-2.3-0.6-4-0.6-4.4&#xA;&#9;&#9;&#9;&#9;&#9;&#9;&#9;C104.4,196.4,104.5,193.6,104,193.2" id="el_Vs_K6FQAoB0"/>
					</g>
				</g>
			</g>
		</g>
		<g id="el_nkN501uO7Am">
			<path d="M104,193.1c0.5,0.3,0.4,3.1,1.6,10.1c0.1,0.3,0.4,2.1,0.6,4.4c0.5,4.3,0.3,5.2-0.1,5.7&#xA;&#9;&#9;&#9;&#9;c-0.5,0.7-1.5,1.1-2.5,0.5c-0.1,0-0.2-0.1-0.3-0.2c-1.3-0.9-1.9-2.9-2.2-3.8c-0.3-0.9-0.7-2.4-0.4-4.9c0.2-2.1,0.8-3.1,1.2-4.4&#xA;&#9;&#9;&#9;&#9;C103.6,196.1,103.5,192.9,104,193.1z" id="el_0aR6gsFjd9d"/>
		</g>
	</g>
</g></g>
<g id="el_DJjZR_poN7p_an_zcrVq0VrN" data-animator-group="true" data-animator-type="0"><g id="el_DJjZR_poN7p">
	<g id="el_b-QfeLzJ94Y">
		<g id="el_ouGGhtaEIlj">
			<g id="el_LplYI_7LPr9">
				<g id="el_odOaYno_6iB">
					<defs>
						<polygon id="SVGID_21_" points="146.6,168.3 150.1,166.3 150.2,166.3 146.7,168.3 &#9;&#9;&#9;&#9;&#9;&#9;"/>
					</defs>
					<clipPath id="SVGID_22_">
						<use xlink:href="#SVGID_21_" style="overflow:visible;"/>
					</clipPath>
					<g id="el_UTj-ilU30fL">
						<path d="M146.6,168.3l3.5-2l0,0L146.6,168.3L146.6,168.3" id="el_-vm68JX6A9H"/>
						<path d="M146.6,168.3l3.5-2l0,0L146.6,168.3C146.7,168.3,146.7,168.3,146.6,168.3" id="el_G3a4sA5_O48"/>
						<path d="M146.7,168.3l3.5-2l0,0L146.7,168.3L146.7,168.3" id="el_01mjaKqTTQ7"/>
					</g>
				</g>
			</g>
		</g>
		<g id="el_pqXRFnrf5h_">
			<g id="el_RznXYhJ_Gbi">
				<g id="el_T4xI5Y4slf5">
					<defs>
						<path id="SVGID_23_" d="M151.7,186.9l-3.5,2c0.2-0.1,0.4-0.3,0.6-0.5c0.4-0.5,0.6-1.3,0.1-5.7c-0.3-2.3-0.6-4-0.6-4.4&#xA;&#9;&#9;&#9;&#9;&#9;&#9;&#9;c-1.2-7-1.1-9.8-1.6-10.1l3.5-2c0.5,0.3,0.4,3.1,1.6,10.1c0.1,0.3,0.4,2.1,0.6,4.4c0.5,4.3,0.3,5.2-0.1,5.7&#xA;&#9;&#9;&#9;&#9;&#9;&#9;&#9;C152.2,186.6,152,186.8,151.7,186.9z"/>
					</defs>
					<clipPath id="SVGID_24_">
						<use xlink:href="#SVGID_23_" style="overflow:visible;"/>
					</clipPath>
					<g id="el_HF1qbGsJ3Rn">
						<path d="M146.7,168.3l3.5-2l0,0L146.7,168.3L146.7,168.3" id="el_8nO-74BsymH"/>
						<path d="M146.7,168.4l3.5-2c0.4,0.4,0.4,3.2,1.5,10.1c0.1,0.3,0.4,2.1,0.6,4.4c0.5,4.3,0.3,5.2-0.1,5.7&#xA;&#9;&#9;&#9;&#9;&#9;&#9;&#9;c-0.2,0.2-0.4,0.4-0.6,0.5l-3.5,2c0.2-0.1,0.4-0.3,0.6-0.5c0.4-0.5,0.6-1.3,0.1-5.7c-0.3-2.3-0.6-4-0.6-4.4&#xA;&#9;&#9;&#9;&#9;&#9;&#9;&#9;C147.1,171.6,147.2,168.8,146.7,168.4" id="el_wEepNnpbalX"/>
					</g>
				</g>
			</g>
		</g>
		<g id="el_PWpHTPrOD0P">
			<path d="M146.7,168.3c0.5,0.3,0.4,3.1,1.6,10.1c0.1,0.3,0.4,2.1,0.6,4.4c0.5,4.3,0.3,5.2-0.1,5.7&#xA;&#9;&#9;&#9;&#9;c-0.5,0.7-1.5,1.1-2.5,0.5c-0.1,0-0.2-0.1-0.3-0.2c-1.3-0.9-1.9-2.9-2.2-3.8c-0.3-0.9-0.7-2.4-0.4-4.9c0.2-2.1,0.8-3.1,1.2-4.4&#xA;&#9;&#9;&#9;&#9;C146.3,171.3,146.2,168,146.7,168.3z" id="el_WXElGCUl79I"/>
		</g>
	</g>
</g></g>
</svg>