<svg version="1.1" id="el_d8D39LAtU" xmlns="http://www.w3.org/2000/svg" xmlns:xlink="http://www.w3.org/1999/xlink" x="0px" y="0px" viewBox="0 0 250 250" style="enable-background:new 0 0 250 250;" xml:space="preserve"><style>@-webkit-keyframes kf_el_QXELERQ1t2_an_Te6iDspjv{0%{opacity: 1;}83.33%{opacity: 0;}100%{opacity: 0;}}@keyframes kf_el_QXELERQ1t2_an_Te6iDspjv{0%{opacity: 1;}83.33%{opacity: 0;}100%{opacity: 0;}}@-webkit-keyframes kf_el_QXELERQ1t2_an_3Yr5mhFmL{0%{-webkit-transform: translate(74.89998626708984px, 75.99998474121094px) translate(-74.89998626708984px, -75.99998474121094px) translate(0px, 0px);transform: translate(74.89998626708984px, 75.99998474121094px) translate(-74.89998626708984px, -75.99998474121094px) translate(0px, 0px);}100%{-webkit-transform: translate(74.89998626708984px, 75.99998474121094px) translate(-74.89998626708984px, -75.99998474121094px) translate(0px, 100px);transform: translate(74.89998626708984px, 75.99998474121094px) translate(-74.89998626708984px, -75.99998474121094px) translate(0px, 100px);}}@keyframes kf_el_QXELERQ1t2_an_3Yr5mhFmL{0%{-webkit-transform: translate(74.89998626708984px, 75.99998474121094px) translate(-74.89998626708984px, -75.99998474121094px) translate(0px, 0px);transform: translate(74.89998626708984px, 75.99998474121094px) translate(-74.89998626708984px, -75.99998474121094px) translate(0px, 0px);}100%{-webkit-transform: translate(74.89998626708984px, 75.99998474121094px) translate(-74.89998626708984px, -75.99998474121094px) translate(0px, 100px);transform: translate(74.89998626708984px, 75.99998474121094px) translate(-74.89998626708984px, -75.99998474121094px) translate(0px, 100px);}}#el_d8D39LAtU *{-webkit-animation-duration: 2s;animation-duration: 2s;-webkit-animation-iteration-count: infinite;animation-iteration-count: infinite;-webkit-animation-timing-function: cubic-bezier(0, 0, 1, 1);animation-timing-function: cubic-bezier(0, 0, 1, 1);}#el_Z_T1kaV2qE{fill: #1563FF;}#el_c9daCd71SB{fill: #1563FF;}#el_4ZhtoF0O8N{fill: #1563FF;}#el_nEvDjhzYoN{fill: #1563FF;}#el_235lYj6pKd{fill: #1563FF;}#el_6tRH5JYsSZ{fill: #1563FF;}#el_9yreNqrFkU{fill: #1563FF;}#el_GwWwCwfO7d{fill: #1563FF;}#el_xMKZe4KyOF{fill: #1563FF;}#el_-gKP-hWbDR{fill: #1563FF;}#el_Ou0UX1sPWQ{fill: #1563FF;}#el_GlAeWnUqYZ{fill: #1563FF;}#el_ii2Xwmma1X{fill: #8C8B8B;}#el_QXELERQ1t2_an_3Yr5mhFmL{-webkit-animation-fill-mode: backwards;animation-fill-mode: backwards;-webkit-transform: translate(74.89998626708984px, 75.99998474121094px) translate(-74.89998626708984px, -75.99998474121094px) translate(0px, 0px);transform: translate(74.89998626708984px, 75.99998474121094px) translate(-74.89998626708984px, -75.99998474121094px) translate(0px, 0px);-webkit-animation-name: kf_el_QXELERQ1t2_an_3Yr5mhFmL;animation-name: kf_el_QXELERQ1t2_an_3Yr5mhFmL;-webkit-animation-timing-function: cubic-bezier(0, 0, 1, 1);animation-timing-function: cubic-bezier(0, 0, 1, 1);}#el_QXELERQ1t2{-webkit-animation-fill-mode: backwards;animation-fill-mode: backwards;opacity: 1;-webkit-animation-name: kf_el_QXELERQ1t2_an_Te6iDspjv;animation-name: kf_el_QXELERQ1t2_an_Te6iDspjv;-webkit-animation-timing-function: cubic-bezier(0, 0, 1, 1);animation-timing-function: cubic-bezier(0, 0, 1, 1);}</style>

<g id="el_QXELERQ1t2_an_3Yr5mhFmL" data-animator-group="true" data-animator-type="0"><g id="el_QXELERQ1t2">
	<path d="M194.6,161.8c0-0.2-0.1-0.3-0.3-0.3l-1.9,0l1.9-1.3c0.1-0.1,0.1-0.2,0.1-0.3c-0.1-0.1-0.2-0.1-0.3,0l-2.2,1.6&#10;&#9;&#9;c0,0-0.1,0.1-0.1,0.1l-2.6,0l1.1-1.8l-2.1,0.2l1.9-1.6c0,0,0.1,0,0.1,0l2.7-0.2c0.1,0,0.2-0.1,0.2-0.2c0-0.1-0.1-0.2-0.3-0.2&#10;&#9;&#9;l-2.3,0.1l1.4-1.2c0.1-0.1,0.1-0.3,0-0.4c-0.1-0.1-0.3-0.1-0.4,0l-1.4,1.2l0.5-2.2c0-0.1-0.1-0.3-0.2-0.3c-0.1,0-0.3,0.1-0.3,0.2&#10;&#9;&#9;l-0.6,2.6c0,0,0,0.1,0,0.1l-1.6,1.4l0-1.2l-1.8,1.3l-0.4-0.4V156c0,0,0.1,0,0.1-0.1l1.7-2.1c0.1-0.1,0.1-0.2,0-0.3&#10;&#9;&#9;c-0.1-0.1-0.3-0.1-0.3,0l-1.4,1.8v-1.8c0-0.2-0.1-0.3-0.3-0.3s-0.3,0.1-0.3,0.3v1.8l-1.4-1.8c-0.1-0.1-0.2-0.1-0.3,0&#10;&#9;&#9;c-0.1,0.1-0.1,0.2,0,0.3l1.7,2.1c0,0,0.1,0.1,0.1,0.1v2.1l-0.6-0.7l-0.5,2.1l-1.7-0.6l-1.4-1.2c0,0,0-0.1,0-0.1l-0.5-2.6&#10;&#9;&#9;c0-0.1-0.2-0.2-0.3-0.2c-0.1,0-0.2,0.1-0.2,0.3l0.4,2.2l-1.4-1.2c-0.1-0.1-0.3-0.1-0.4,0c-0.1,0.1-0.1,0.3,0,0.4l1.4,1.2l-2.3-0.2&#10;&#9;&#9;c-0.1,0-0.2,0.1-0.3,0.2c0,0.1,0.1,0.2,0.2,0.2l2.7,0.2c0.1,0,0.1,0,0.1,0l1.7,1.4l0.5,1.5l-0.4,0.2l-2.6,0c0,0,0-0.1-0.1-0.1&#10;&#9;&#9;l-2.1-1.7c-0.1-0.1-0.3-0.1-0.3,0l0,0c-0.1,0.1-0.1,0.2,0,0.3l1.8,1.4l-1.9,0c-0.2,0-0.3,0.1-0.3,0.3s0.1,0.3,0.3,0.3l1.9,0&#10;&#9;&#9;l-1.8,1.3c-0.1,0.1-0.1,0.2-0.1,0.3h0c0.1,0.1,0.2,0.1,0.3,0l2.2-1.6c0,0,0.1-0.1,0.1-0.1l1.2,0l-0.2,0.1l1.6,0.9l-1.3,1.7h0.5&#10;&#9;&#9;l-0.9,0.7c0,0-0.1,0-0.1,0l-2.7,0.2c-0.1,0-0.2,0.1-0.2,0.2l0,0c0,0.1,0.1,0.2,0.3,0.2l2.3-0.1l-1.4,1.2c-0.1,0.1-0.1,0.3,0,0.4&#10;&#9;&#9;s0.3,0.1,0.4,0l1.4-1.2l-0.5,2.2c0,0.1,0.1,0.3,0.2,0.3l0,0c0.1,0,0.3-0.1,0.3-0.2l0.6-2.6c0,0,0-0.1,0-0.1l1.4-1.2h1.3l0.2,2.3&#10;&#9;&#9;l1.2-1.1v1.8c0,0-0.1,0-0.1,0.1l-1.7,2.1c-0.1,0.1-0.1,0.2,0,0.3l0,0c0.1,0.1,0.3,0.1,0.3,0l1.4-1.8v1.9c0,0.2,0.1,0.3,0.3,0.3&#10;&#9;&#9;s0.3-0.1,0.3-0.3v-1.8l1.4,1.8c0.1,0.1,0.2,0.1,0.3,0l0,0c0.1-0.1,0.1-0.2,0-0.3l-1.7-2.1c0,0-0.1-0.1-0.1-0.1v-1l0.5,0.7l0.8-2.5&#10;&#9;&#9;l1.6,0.4l0.8,0.7c0,0,0,0.1,0,0.1l0.5,2.6c0,0.1,0.2,0.2,0.3,0.2h0c0.1,0,0.2-0.1,0.2-0.3l-0.4-2.2l1.4,1.2c0.1,0.1,0.3,0.1,0.4,0&#10;&#9;&#9;c0.1-0.1,0.1-0.3,0-0.4l-1.4-1.2l2.3,0.2c0.1,0,0.2-0.1,0.3-0.2v0c0-0.1-0.1-0.2-0.2-0.2l-2.7-0.2c0,0-0.1,0-0.1,0l-0.3-0.3&#10;&#9;&#9;l-0.7-1.5l1.6-0.5l-1.7-1.2l2.7,0.1c0,0,0,0.1,0.1,0.1l2.1,1.7c0.1,0.1,0.3,0.1,0.3,0c0.1-0.1,0.1-0.2,0-0.3l-1.8-1.4l1.9,0&#10;&#9;&#9;C194.4,162.1,194.6,161.9,194.6,161.8z" id="el_Z_T1kaV2qE"/>
	<path d="M172,190.5c0-0.2-0.1-0.3-0.3-0.3l-1.9,0l1.9-1.3c0.1-0.1,0.1-0.2,0.1-0.3c-0.1-0.1-0.2-0.1-0.3,0l-2.2,1.6&#10;&#9;&#9;c0,0-0.1,0.1-0.1,0.1l-2.6,0l1.1-1.8l-2.1,0.2l1.9-1.6c0,0,0.1,0,0.1,0l2.7-0.2c0.1,0,0.2-0.1,0.2-0.2c0-0.1-0.1-0.2-0.3-0.2&#10;&#9;&#9;l-2.3,0.1l1.4-1.2c0.1-0.1,0.1-0.3,0-0.4c-0.1-0.1-0.3-0.1-0.4,0l-1.4,1.2l0.5-2.2c0-0.1-0.1-0.3-0.2-0.3c-0.1,0-0.3,0.1-0.3,0.2&#10;&#9;&#9;l-0.6,2.6c0,0,0,0.1,0,0.1l-1.6,1.4l0-1.2l-1.8,1.3l-0.4-0.4v-2.8c0,0,0.1,0,0.1-0.1l1.7-2.1c0.1-0.1,0.1-0.2,0-0.3&#10;&#9;&#9;c-0.1-0.1-0.3-0.1-0.3,0l-1.4,1.8v-1.8c0-0.2-0.1-0.3-0.3-0.3s-0.3,0.1-0.3,0.3v1.8l-1.4-1.8c-0.1-0.1-0.2-0.1-0.3,0&#10;&#9;&#9;c-0.1,0.1-0.1,0.2,0,0.3l1.7,2.1c0,0,0.1,0.1,0.1,0.1v2.1l-0.6-0.7l-0.5,2.1l-1.7-0.6l-1.4-1.2c0,0,0-0.1,0-0.1l-0.5-2.6&#10;&#9;&#9;c0-0.1-0.2-0.2-0.3-0.2c-0.1,0-0.2,0.1-0.2,0.3l0.4,2.2l-1.4-1.2c-0.1-0.1-0.3-0.1-0.4,0c-0.1,0.1-0.1,0.3,0,0.4l1.4,1.2l-2.3-0.2&#10;&#9;&#9;c-0.1,0-0.2,0.1-0.3,0.2c0,0.1,0.1,0.2,0.2,0.2l2.7,0.2c0.1,0,0.1,0,0.1,0l1.7,1.4l0.5,1.5L160,190l-2.6,0c0,0,0-0.1-0.1-0.1&#10;&#9;&#9;l-2.1-1.7c-0.1-0.1-0.3-0.1-0.3,0l0,0c-0.1,0.1-0.1,0.2,0,0.3l1.8,1.4l-1.9,0c-0.2,0-0.3,0.1-0.3,0.3c0,0.2,0.1,0.3,0.3,0.3l1.9,0&#10;&#9;&#9;l-1.8,1.3c-0.1,0.1-0.1,0.2-0.1,0.3l0,0c0.1,0.1,0.2,0.1,0.3,0l2.2-1.6c0,0,0.1-0.1,0.1-0.1l1.2,0l-0.2,0.1l1.6,0.9l-1.3,1.7h0.5&#10;&#9;&#9;l-0.9,0.7c0,0-0.1,0-0.1,0l-2.7,0.2c-0.1,0-0.2,0.1-0.2,0.2l0,0c0,0.1,0.1,0.2,0.3,0.2l2.3-0.1l-1.4,1.2c-0.1,0.1-0.1,0.3,0,0.4&#10;&#9;&#9;s0.3,0.1,0.4,0l1.4-1.2l-0.5,2.2c0,0.1,0.1,0.3,0.2,0.3l0,0c0.1,0,0.3-0.1,0.3-0.2l0.6-2.6c0,0,0-0.1,0-0.1l1.4-1.2h1.3l0.2,2.3&#10;&#9;&#9;l1.2-1.1v1.8c0,0-0.1,0-0.1,0.1l-1.7,2.1c-0.1,0.1-0.1,0.2,0,0.3l0,0c0.1,0.1,0.3,0.1,0.3,0l1.4-1.8v1.9c0,0.2,0.1,0.3,0.3,0.3&#10;&#9;&#9;s0.3-0.1,0.3-0.3V197l1.4,1.8c0.1,0.1,0.2,0.1,0.3,0l0,0c0.1-0.1,0.1-0.2,0-0.3l-1.7-2.1c0,0-0.1-0.1-0.1-0.1v-1l0.5,0.7l0.8-2.5&#10;&#9;&#9;l1.6,0.4l0.8,0.7c0,0,0,0.1,0,0.1l0.5,2.6c0,0.1,0.2,0.2,0.3,0.2h0c0.1,0,0.2-0.1,0.2-0.3l-0.4-2.2l1.4,1.2c0.1,0.1,0.3,0.1,0.4,0&#10;&#9;&#9;c0.1-0.1,0.1-0.3,0-0.4l-1.4-1.2l2.3,0.2c0.1,0,0.2-0.1,0.3-0.2l0,0c0-0.1-0.1-0.2-0.2-0.2l-2.7-0.2c0,0-0.1,0-0.1,0l-0.3-0.3&#10;&#9;&#9;l-0.7-1.5l1.6-0.5l-1.7-1.2l2.7,0.1c0,0,0,0.1,0.1,0.1l2.1,1.7c0.1,0.1,0.3,0.1,0.3,0s0.1-0.2,0-0.3l-1.8-1.4l1.9,0&#10;&#9;&#9;C171.9,190.8,172,190.7,172,190.5z" id="el_c9daCd71SB"/>
	<path d="M150.1,102.7c0-0.2-0.1-0.3-0.3-0.3l-1.9,0l1.9-1.3c0.1-0.1,0.1-0.2,0.1-0.3c-0.1-0.1-0.2-0.1-0.3,0l-2.2,1.6&#10;&#9;&#9;c0,0-0.1,0.1-0.1,0.1l-2.6,0l1.1-1.8l-2.1,0.2l1.9-1.6c0,0,0.1,0,0.1,0l2.7-0.2c0.1,0,0.2-0.1,0.2-0.2s-0.1-0.2-0.3-0.2l-2.3,0.1&#10;&#9;&#9;l1.4-1.2c0.1-0.1,0.1-0.3,0-0.4c-0.1-0.1-0.3-0.1-0.4,0l-1.4,1.2l0.5-2.2c0-0.1-0.1-0.3-0.2-0.3c-0.1,0-0.3,0.1-0.3,0.2l-0.6,2.6&#10;&#9;&#9;c0,0,0,0.1,0,0.1l-1.6,1.4l0-1.2l-1.8,1.3l-0.4-0.4V97c0,0,0.1,0,0.1-0.1l1.7-2.1c0.1-0.1,0.1-0.2,0-0.3s-0.3-0.1-0.3,0l-1.4,1.8&#10;&#9;&#9;v-1.8c0-0.2-0.1-0.3-0.3-0.3s-0.3,0.1-0.3,0.3v1.8l-1.4-1.8c-0.1-0.1-0.2-0.1-0.3,0s-0.1,0.2,0,0.3l1.7,2.1c0,0,0.1,0.1,0.1,0.1&#10;&#9;&#9;v2.1l-0.6-0.7l-0.5,2.1l-1.7-0.6l-1.4-1.2c0,0,0-0.1,0-0.1l-0.5-2.6c0-0.1-0.2-0.2-0.3-0.2c-0.1,0-0.2,0.1-0.2,0.3l0.4,2.2&#10;&#9;&#9;l-1.4-1.2c-0.1-0.1-0.3-0.1-0.4,0c-0.1,0.1-0.1,0.3,0,0.4l1.4,1.2l-2.3-0.2c-0.1,0-0.2,0.1-0.3,0.2c0,0.1,0.1,0.2,0.2,0.2l2.7,0.2&#10;&#9;&#9;c0.1,0,0.1,0,0.1,0l1.7,1.4l0.5,1.5l-0.4,0.2l-2.6,0c0,0,0-0.1-0.1-0.1l-2.1-1.7c-0.1-0.1-0.3-0.1-0.3,0l0,0&#10;&#9;&#9;c-0.1,0.1-0.1,0.2,0,0.3l1.8,1.4l-1.9,0c-0.2,0-0.3,0.1-0.3,0.3s0.1,0.3,0.3,0.3l1.9,0l-1.8,1.3c-0.1,0.1-0.1,0.2-0.1,0.3l0,0&#10;&#9;&#9;c0.1,0.1,0.2,0.1,0.3,0l2.2-1.6c0,0,0.1-0.1,0.1-0.1l1.2,0l-0.2,0.1l1.6,0.9l-1.3,1.7h0.5l-0.9,0.7c0,0-0.1,0-0.1,0l-2.7,0.2&#10;&#9;&#9;c-0.1,0-0.2,0.1-0.2,0.2l0,0c0,0.1,0.1,0.2,0.3,0.2l2.3-0.1l-1.4,1.2c-0.1,0.1-0.1,0.3,0,0.4c0.1,0.1,0.3,0.1,0.4,0l1.4-1.2&#10;&#9;&#9;l-0.5,2.2c0,0.1,0.1,0.3,0.2,0.3v0c0.1,0,0.3-0.1,0.3-0.2l0.6-2.6c0,0,0-0.1,0-0.1l1.4-1.2h1.3l0.2,2.3l1.2-1.1v1.8&#10;&#9;&#9;c0,0-0.1,0-0.1,0.1l-1.7,2.1c-0.1,0.1-0.1,0.2,0,0.3v0c0.1,0.1,0.3,0.1,0.3,0l1.4-1.8v1.9c0,0.2,0.1,0.3,0.3,0.3s0.3-0.1,0.3-0.3&#10;&#9;&#9;v-1.8l1.4,1.8c0.1,0.1,0.2,0.1,0.3,0v0c0.1-0.1,0.1-0.2,0-0.3l-1.7-2.1c0,0-0.1-0.1-0.1-0.1v-1l0.5,0.7l0.8-2.5l1.6,0.4l0.8,0.7&#10;&#9;&#9;c0,0,0,0.1,0,0.1l0.5,2.6c0,0.1,0.2,0.2,0.3,0.2h0c0.1,0,0.2-0.1,0.2-0.3l-0.4-2.2l1.4,1.2c0.1,0.1,0.3,0.1,0.4,0&#10;&#9;&#9;c0.1-0.1,0.1-0.3,0-0.4l-1.4-1.2l2.3,0.2c0.1,0,0.2-0.1,0.3-0.2l0,0c0-0.1-0.1-0.2-0.2-0.2l-2.7-0.2c0,0-0.1,0-0.1,0l-0.3-0.3&#10;&#9;&#9;l-0.7-1.5l1.6-0.5l-1.7-1.2l2.7,0.1c0,0,0,0.1,0.1,0.1l2.1,1.7c0.1,0.1,0.3,0.1,0.3,0c0.1-0.1,0.1-0.2,0-0.3l-1.8-1.4l1.9,0&#10;&#9;&#9;C149.9,103,150.1,102.9,150.1,102.7z" id="el_4ZhtoF0O8N"/>
	<path d="M121.1,121.7c0-0.2-0.1-0.3-0.3-0.3l-1.9,0l1.9-1.3c0.1-0.1,0.1-0.2,0.1-0.3c-0.1-0.1-0.2-0.1-0.3,0l-2.2,1.6&#10;&#9;&#9;c0,0-0.1,0.1-0.1,0.1l-2.6,0l1.1-1.8l-2.1,0.2l1.9-1.6c0,0,0.1,0,0.1,0l2.7-0.2c0.1,0,0.2-0.1,0.2-0.2c0-0.1-0.1-0.2-0.3-0.2&#10;&#9;&#9;l-2.3,0.1l1.4-1.2c0.1-0.1,0.1-0.3,0-0.4c-0.1-0.1-0.3-0.1-0.4,0l-1.4,1.2l0.5-2.2c0-0.1-0.1-0.3-0.2-0.3c-0.1,0-0.3,0.1-0.3,0.2&#10;&#9;&#9;l-0.6,2.6c0,0,0,0.1,0,0.1l-1.6,1.4l0-1.2l-1.8,1.3l-0.4-0.4v-2.8c0,0,0.1,0,0.1-0.1l1.7-2.1c0.1-0.1,0.1-0.2,0-0.3&#10;&#9;&#9;c-0.1-0.1-0.3-0.1-0.3,0l-1.4,1.8v-1.8c0-0.2-0.1-0.3-0.3-0.3s-0.3,0.1-0.3,0.3v1.8l-1.4-1.8c-0.1-0.1-0.2-0.1-0.3,0&#10;&#9;&#9;s-0.1,0.2,0,0.3l1.7,2.1c0,0,0.1,0.1,0.1,0.1v2.1l-0.6-0.7l-0.5,2.1l-1.7-0.6l-1.4-1.2c0,0,0-0.1,0-0.1l-0.5-2.6&#10;&#9;&#9;c0-0.1-0.2-0.2-0.3-0.2c-0.1,0-0.2,0.1-0.2,0.3l0.4,2.2l-1.4-1.2c-0.1-0.1-0.3-0.1-0.4,0c-0.1,0.1-0.1,0.3,0,0.4l1.4,1.2l-2.3-0.2&#10;&#9;&#9;c-0.1,0-0.2,0.1-0.3,0.2s0.1,0.2,0.2,0.2l2.7,0.2c0.1,0,0.1,0,0.1,0l1.7,1.4l0.5,1.5l-0.4,0.2l-2.6,0c0,0,0-0.1-0.1-0.1l-2.1-1.7&#10;&#9;&#9;c-0.1-0.1-0.3-0.1-0.3,0h0c-0.1,0.1-0.1,0.2,0,0.3l1.8,1.4l-1.9,0c-0.2,0-0.3,0.1-0.3,0.3c0,0.2,0.1,0.3,0.3,0.3l1.9,0l-1.8,1.3&#10;&#9;&#9;c-0.1,0.1-0.1,0.2-0.1,0.3l0,0c0.1,0.1,0.2,0.1,0.3,0l2.2-1.6c0,0,0.1-0.1,0.1-0.1l1.2,0l-0.2,0.1l1.6,0.9l-1.3,1.7h0.5l-0.9,0.7&#10;&#9;&#9;c0,0-0.1,0-0.1,0l-2.7,0.2c-0.1,0-0.2,0.1-0.2,0.2h0c0,0.1,0.1,0.2,0.3,0.2l2.3-0.1l-1.4,1.2c-0.1,0.1-0.1,0.3,0,0.4&#10;&#9;&#9;c0.1,0.1,0.3,0.1,0.4,0l1.4-1.2l-0.5,2.2c0,0.1,0.1,0.3,0.2,0.3l0,0c0.1,0,0.3-0.1,0.3-0.2l0.6-2.6c0,0,0-0.1,0-0.1l1.4-1.2h1.3&#10;&#9;&#9;l0.2,2.3l1.2-1.1v1.8c0,0-0.1,0-0.1,0.1l-1.7,2.1c-0.1,0.1-0.1,0.2,0,0.3l0,0c0.1,0.1,0.3,0.1,0.3,0l1.4-1.8v1.9&#10;&#9;&#9;c0,0.2,0.1,0.3,0.3,0.3s0.3-0.1,0.3-0.3v-1.8l1.4,1.8c0.1,0.1,0.2,0.1,0.3,0l0,0c0.1-0.1,0.1-0.2,0-0.3l-1.7-2.1&#10;&#9;&#9;c0,0-0.1-0.1-0.1-0.1v-1l0.5,0.7l0.8-2.5l1.6,0.4l0.8,0.7c0,0,0,0.1,0,0.1l0.5,2.6c0,0.1,0.2,0.2,0.3,0.2h0c0.1,0,0.2-0.1,0.2-0.3&#10;&#9;&#9;l-0.4-2.2l1.4,1.2c0.1,0.1,0.3,0.1,0.4,0c0.1-0.1,0.1-0.3,0-0.4l-1.4-1.2l2.3,0.2c0.1,0,0.2-0.1,0.3-0.2l0,0c0-0.1-0.1-0.2-0.2-0.2&#10;&#9;&#9;l-2.7-0.2c0,0-0.1,0-0.1,0l-0.3-0.3l-0.7-1.5l1.6-0.5l-1.7-1.2l2.7,0.1c0,0,0,0.1,0.1,0.1l2.1,1.7c0.1,0.1,0.3,0.1,0.3,0&#10;&#9;&#9;c0.1-0.1,0.1-0.2,0-0.3l-1.8-1.4l1.9,0C120.9,122,121.1,121.9,121.1,121.7z" id="el_nEvDjhzYoN"/>
	<path d="M177.1,127.4c0-0.2-0.1-0.3-0.3-0.3l-1.9,0l1.9-1.3c0.1-0.1,0.1-0.2,0.1-0.3c-0.1-0.1-0.2-0.1-0.3,0l-2.2,1.6&#10;&#9;&#9;c0,0-0.1,0.1-0.1,0.1l-2.6,0l1.1-1.8l-2.1,0.2l1.9-1.6c0,0,0.1,0,0.1,0l2.7-0.2c0.1,0,0.2-0.1,0.2-0.2c0-0.1-0.1-0.2-0.3-0.2&#10;&#9;&#9;l-2.3,0.1l1.4-1.2c0.1-0.1,0.1-0.3,0-0.4c-0.1-0.1-0.3-0.1-0.4,0l-1.4,1.2l0.5-2.2c0-0.1-0.1-0.3-0.2-0.3c-0.1,0-0.3,0.1-0.3,0.2&#10;&#9;&#9;l-0.6,2.6c0,0,0,0.1,0,0.1l-1.6,1.4l0-1.2l-1.8,1.3l-0.4-0.4v-2.8c0,0,0.1,0,0.1-0.1l1.7-2.1c0.1-0.1,0.1-0.2,0-0.3&#10;&#9;&#9;c-0.1-0.1-0.3-0.1-0.3,0l-1.4,1.8v-1.8c0-0.2-0.1-0.3-0.3-0.3s-0.3,0.1-0.3,0.3v1.8l-1.4-1.8c-0.1-0.1-0.2-0.1-0.3,0&#10;&#9;&#9;c-0.1,0.1-0.1,0.2,0,0.3l1.7,2.1c0,0,0.1,0.1,0.1,0.1v2.1l-0.6-0.7l-0.5,2.1l-1.7-0.6l-1.4-1.2c0,0,0-0.1,0-0.1l-0.5-2.6&#10;&#9;&#9;c0-0.1-0.2-0.2-0.3-0.2c-0.1,0-0.2,0.1-0.2,0.3l0.4,2.2l-1.4-1.2c-0.1-0.1-0.3-0.1-0.4,0c-0.1,0.1-0.1,0.3,0,0.4l1.4,1.2l-2.3-0.2&#10;&#9;&#9;c-0.1,0-0.2,0.1-0.3,0.2c0,0.1,0.1,0.2,0.2,0.2l2.7,0.2c0.1,0,0.1,0,0.1,0l1.7,1.4l0.5,1.5l-0.4,0.2l-2.6,0c0,0,0-0.1-0.1-0.1&#10;&#9;&#9;l-2.1-1.7c-0.1-0.1-0.3-0.1-0.3,0l0,0c-0.1,0.1-0.1,0.2,0,0.3l1.8,1.4l-1.9,0c-0.2,0-0.3,0.1-0.3,0.3c0,0.2,0.1,0.3,0.3,0.3l1.9,0&#10;&#9;&#9;l-1.8,1.3c-0.1,0.1-0.1,0.2-0.1,0.3h0c0.1,0.1,0.2,0.1,0.3,0l2.2-1.6c0,0,0.1-0.1,0.1-0.1l1.2,0l-0.2,0.1l1.6,0.9l-1.3,1.7h0.5&#10;&#9;&#9;l-0.9,0.7c0,0-0.1,0-0.1,0l-2.7,0.2c-0.1,0-0.2,0.1-0.2,0.2l0,0c0,0.1,0.1,0.2,0.3,0.2l2.3-0.1l-1.4,1.2c-0.1,0.1-0.1,0.3,0,0.4&#10;&#9;&#9;s0.3,0.1,0.4,0l1.4-1.2l-0.5,2.2c0,0.1,0.1,0.3,0.2,0.3l0,0c0.1,0,0.3-0.1,0.3-0.2l0.6-2.6c0,0,0-0.1,0-0.1l1.4-1.2h1.3l0.2,2.3&#10;&#9;&#9;l1.2-1.1v1.8c0,0-0.1,0-0.1,0.1l-1.7,2.1c-0.1,0.1-0.1,0.2,0,0.3v0c0.1,0.1,0.3,0.1,0.3,0l1.4-1.8v1.9c0,0.2,0.1,0.3,0.3,0.3&#10;&#9;&#9;s0.3-0.1,0.3-0.3v-1.8l1.4,1.8c0.1,0.1,0.2,0.1,0.3,0v0c0.1-0.1,0.1-0.2,0-0.3l-1.7-2.1c0,0-0.1-0.1-0.1-0.1v-1l0.5,0.7l0.8-2.5&#10;&#9;&#9;l1.6,0.4l0.8,0.7c0,0,0,0.1,0,0.1l0.5,2.6c0,0.1,0.2,0.2,0.3,0.2h0c0.1,0,0.2-0.1,0.2-0.3l-0.4-2.2l1.4,1.2c0.1,0.1,0.3,0.1,0.4,0&#10;&#9;&#9;c0.1-0.1,0.1-0.3,0-0.4l-1.4-1.2l2.3,0.2c0.1,0,0.2-0.1,0.3-0.2v0c0-0.1-0.1-0.2-0.2-0.2l-2.7-0.2c0,0-0.1,0-0.1,0l-0.3-0.3&#10;&#9;&#9;l-0.7-1.5l1.6-0.5l-1.7-1.2l2.7,0.1c0,0,0,0.1,0.1,0.1l2.1,1.7c0.1,0.1,0.3,0.1,0.3,0c0.1-0.1,0.1-0.2,0-0.3l-1.8-1.4l1.9,0&#10;&#9;&#9;C176.9,127.7,177,127.6,177.1,127.4z" id="el_235lYj6pKd"/>
	<path d="M107.2,181.9c0-0.2-0.1-0.3-0.3-0.3l-1.9,0l1.9-1.3c0.1-0.1,0.1-0.2,0.1-0.3c-0.1-0.1-0.2-0.1-0.3,0l-2.2,1.6&#10;&#9;&#9;c0,0-0.1,0.1-0.1,0.1l-2.6,0l1.1-1.8l-2.1,0.2l1.9-1.6c0,0,0.1,0,0.1,0l2.7-0.2c0.1,0,0.2-0.1,0.2-0.2c0-0.1-0.1-0.2-0.3-0.2&#10;&#9;&#9;l-2.3,0.1l1.4-1.2c0.1-0.1,0.1-0.3,0-0.4c-0.1-0.1-0.3-0.1-0.4,0l-1.4,1.2l0.5-2.2c0-0.1-0.1-0.3-0.2-0.3c-0.1,0-0.3,0.1-0.3,0.2&#10;&#9;&#9;l-0.6,2.6c0,0,0,0.1,0,0.1l-1.6,1.4l0-1.2l-1.8,1.3l-0.4-0.4v-2.8c0,0,0.1,0,0.1-0.1l1.7-2.1c0.1-0.1,0.1-0.2,0-0.3&#10;&#9;&#9;c-0.1-0.1-0.3-0.1-0.3,0l-1.4,1.8v-1.8c0-0.2-0.1-0.3-0.3-0.3c-0.2,0-0.3,0.1-0.3,0.3v1.8l-1.4-1.8c-0.1-0.1-0.2-0.1-0.3,0&#10;&#9;&#9;c-0.1,0.1-0.1,0.2,0,0.3l1.7,2.1c0,0,0.1,0.1,0.1,0.1v2.1l-0.6-0.7l-0.5,2.1l-1.7-0.6l-1.4-1.2c0,0,0-0.1,0-0.1l-0.5-2.6&#10;&#9;&#9;c0-0.1-0.2-0.2-0.3-0.2s-0.2,0.1-0.2,0.3l0.4,2.2l-1.4-1.2c-0.1-0.1-0.3-0.1-0.4,0c-0.1,0.1-0.1,0.3,0,0.4l1.4,1.2l-2.3-0.2&#10;&#9;&#9;c-0.1,0-0.2,0.1-0.3,0.2c0,0.1,0.1,0.2,0.2,0.2l2.7,0.2c0.1,0,0.1,0,0.1,0l1.7,1.4l0.5,1.5l-0.4,0.2l-2.6,0c0,0,0-0.1-0.1-0.1&#10;&#9;&#9;l-2.1-1.7c-0.1-0.1-0.3-0.1-0.3,0h0c-0.1,0.1-0.1,0.2,0,0.3l1.8,1.4l-1.9,0c-0.2,0-0.3,0.1-0.3,0.3c0,0.2,0.1,0.3,0.3,0.3l1.9,0&#10;&#9;&#9;l-1.8,1.3c-0.1,0.1-0.1,0.2-0.1,0.3h0c0.1,0.1,0.2,0.1,0.3,0l2.2-1.6c0,0,0.1-0.1,0.1-0.1l1.2,0l-0.2,0.1l1.6,0.9l-1.3,1.7h0.5&#10;&#9;&#9;l-0.9,0.7c0,0-0.1,0-0.1,0l-2.7,0.2c-0.1,0-0.2,0.1-0.2,0.2h0c0,0.1,0.1,0.2,0.3,0.2l2.3-0.1l-1.4,1.2c-0.1,0.1-0.1,0.3,0,0.4&#10;&#9;&#9;s0.3,0.1,0.4,0l1.4-1.2l-0.5,2.2c0,0.1,0.1,0.3,0.2,0.3l0,0c0.1,0,0.3-0.1,0.3-0.2l0.6-2.6c0,0,0-0.1,0-0.1l1.4-1.2h1.3l0.2,2.3&#10;&#9;&#9;l1.2-1.1v1.8c0,0-0.1,0-0.1,0.1l-1.7,2.1c-0.1,0.1-0.1,0.2,0,0.3l0,0c0.1,0.1,0.3,0.1,0.3,0l1.4-1.8v1.9c0,0.2,0.1,0.3,0.3,0.3&#10;&#9;&#9;c0.2,0,0.3-0.1,0.3-0.3v-1.8l1.4,1.8c0.1,0.1,0.2,0.1,0.3,0l0,0c0.1-0.1,0.1-0.2,0-0.3l-1.7-2.1c0,0-0.1-0.1-0.1-0.1v-1l0.5,0.7&#10;&#9;&#9;l0.8-2.5l1.6,0.4l0.8,0.7c0,0,0,0.1,0,0.1l0.5,2.6c0,0.1,0.2,0.2,0.3,0.2h0c0.1,0,0.2-0.1,0.2-0.3l-0.4-2.2l1.4,1.2&#10;&#9;&#9;c0.1,0.1,0.3,0.1,0.4,0c0.1-0.1,0.1-0.3,0-0.4l-1.4-1.2l2.3,0.2c0.1,0,0.2-0.1,0.3-0.2l0,0c0-0.1-0.1-0.2-0.2-0.2l-2.7-0.2&#10;&#9;&#9;c0,0-0.1,0-0.1,0l-0.3-0.3l-0.7-1.5l1.6-0.5l-1.7-1.2l2.7,0.1c0,0,0,0.1,0.1,0.1l2.1,1.7c0.1,0.1,0.3,0.1,0.3,0&#10;&#9;&#9;c0.1-0.1,0.1-0.2,0-0.3l-1.8-1.4l1.9,0C107,182.2,107.2,182.1,107.2,181.9z" id="el_6tRH5JYsSZ"/>
	<path d="M94.8,150.5c0-0.2-0.1-0.3-0.3-0.3l-1.9,0l1.9-1.3c0.1-0.1,0.1-0.2,0.1-0.3c-0.1-0.1-0.2-0.1-0.3,0L92,150&#10;&#9;&#9;c0,0-0.1,0.1-0.1,0.1l-2.6,0l1.1-1.8l-2.1,0.2l1.9-1.6c0,0,0.1,0,0.1,0l2.7-0.2c0.1,0,0.2-0.1,0.2-0.2c0-0.1-0.1-0.2-0.3-0.2&#10;&#9;&#9;l-2.3,0.1l1.4-1.2c0.1-0.1,0.1-0.3,0-0.4s-0.3-0.1-0.4,0l-1.4,1.2l0.5-2.2c0-0.1-0.1-0.3-0.2-0.3c-0.1,0-0.3,0.1-0.3,0.2l-0.6,2.6&#10;&#9;&#9;c0,0,0,0.1,0,0.1l-1.6,1.4l0-1.2l-1.8,1.3l-0.4-0.4v-2.8c0,0,0.1,0,0.1-0.1l1.7-2.1c0.1-0.1,0.1-0.2,0-0.3c-0.1-0.1-0.3-0.1-0.3,0&#10;&#9;&#9;l-1.4,1.8v-1.8c0-0.2-0.1-0.3-0.3-0.3s-0.3,0.1-0.3,0.3v1.8l-1.4-1.8c-0.1-0.1-0.2-0.1-0.3,0c-0.1,0.1-0.1,0.2,0,0.3l1.7,2.1&#10;&#9;&#9;c0,0,0.1,0.1,0.1,0.1v2.1l-0.6-0.7l-0.5,2.1l-1.7-0.6l-1.4-1.2c0,0,0-0.1,0-0.1l-0.5-2.6c0-0.1-0.2-0.2-0.3-0.2&#10;&#9;&#9;c-0.1,0-0.2,0.1-0.2,0.3l0.4,2.2l-1.4-1.2c-0.1-0.1-0.3-0.1-0.4,0c-0.1,0.1-0.1,0.3,0,0.4l1.4,1.2l-2.3-0.2c-0.1,0-0.2,0.1-0.3,0.2&#10;&#9;&#9;c0,0.1,0.1,0.2,0.2,0.2l2.7,0.2c0.1,0,0.1,0,0.1,0l1.7,1.4l0.5,1.5l-0.4,0.2l-2.6,0c0,0,0-0.1-0.1-0.1l-2.1-1.7&#10;&#9;&#9;c-0.1-0.1-0.3-0.1-0.3,0l0,0c-0.1,0.1-0.1,0.2,0,0.3l1.8,1.4l-1.9,0c-0.2,0-0.3,0.1-0.3,0.3c0,0.2,0.1,0.3,0.3,0.3l1.9,0l-1.8,1.3&#10;&#9;&#9;c-0.1,0.1-0.1,0.2-0.1,0.3h0c0.1,0.1,0.2,0.1,0.3,0l2.2-1.6c0,0,0.1-0.1,0.1-0.1l1.2,0l-0.2,0.1l1.6,0.9l-1.3,1.7h0.5L81,154&#10;&#9;&#9;c0,0-0.1,0-0.1,0l-2.7,0.2c-0.1,0-0.2,0.1-0.2,0.2h0c0,0.1,0.1,0.2,0.3,0.2l2.3-0.1l-1.4,1.2c-0.1,0.1-0.1,0.3,0,0.4&#10;&#9;&#9;c0.1,0.1,0.3,0.1,0.4,0l1.4-1.2l-0.5,2.2c0,0.1,0.1,0.3,0.2,0.3v0c0.1,0,0.3-0.1,0.3-0.2l0.6-2.6c0,0,0-0.1,0-0.1l1.4-1.2h1.3&#10;&#9;&#9;l0.2,2.3l1.2-1.1v1.8c0,0-0.1,0-0.1,0.1l-1.7,2.1c-0.1,0.1-0.1,0.2,0,0.3v0c0.1,0.1,0.3,0.1,0.3,0l1.4-1.8v1.9&#10;&#9;&#9;c0,0.2,0.1,0.3,0.3,0.3s0.3-0.1,0.3-0.3V157l1.4,1.8c0.1,0.1,0.2,0.1,0.3,0v0c0.1-0.1,0.1-0.2,0-0.3l-1.7-2.1c0,0-0.1-0.1-0.1-0.1&#10;&#9;&#9;v-1l0.5,0.7l0.8-2.5l1.6,0.4l0.8,0.7c0,0,0,0.1,0,0.1l0.5,2.6c0,0.1,0.2,0.2,0.3,0.2h0c0.1,0,0.2-0.1,0.2-0.3l-0.4-2.2l1.4,1.2&#10;&#9;&#9;c0.1,0.1,0.3,0.1,0.4,0c0.1-0.1,0.1-0.3,0-0.4l-1.4-1.2l2.3,0.2c0.1,0,0.2-0.1,0.3-0.2l0,0c0-0.1-0.1-0.2-0.2-0.2l-2.7-0.2&#10;&#9;&#9;c0,0-0.1,0-0.1,0l-0.3-0.3l-0.7-1.5l1.6-0.5l-1.7-1.2l2.7,0.1c0,0,0,0.1,0.1,0.1l2.1,1.7c0.1,0.1,0.3,0.1,0.3,0s0.1-0.2,0-0.3&#10;&#9;&#9;l-1.8-1.4l1.9,0C94.7,150.8,94.8,150.7,94.8,150.5z" id="el_9yreNqrFkU"/>
	<path d="M141.3,167.7c0-0.2-0.1-0.3-0.3-0.3l-1.9,0l1.9-1.3c0.1-0.1,0.1-0.2,0.1-0.3c-0.1-0.1-0.2-0.1-0.3,0l-2.2,1.6&#10;&#9;&#9;c0,0-0.1,0.1-0.1,0.1l-2.6,0l1.1-1.8l-2.1,0.2l1.9-1.6c0,0,0.1,0,0.1,0l2.7-0.2c0.1,0,0.2-0.1,0.2-0.2c0-0.1-0.1-0.2-0.3-0.2&#10;&#9;&#9;l-2.3,0.1l1.4-1.2c0.1-0.1,0.1-0.3,0-0.4c-0.1-0.1-0.3-0.1-0.4,0l-1.4,1.2l0.5-2.2c0-0.1-0.1-0.3-0.2-0.3c-0.1,0-0.3,0.1-0.3,0.2&#10;&#9;&#9;l-0.6,2.6c0,0,0,0.1,0,0.1l-1.6,1.4l0-1.2l-1.8,1.3l-0.4-0.4V162c0,0,0.1,0,0.1-0.1l1.7-2.1c0.1-0.1,0.1-0.2,0-0.3&#10;&#9;&#9;c-0.1-0.1-0.3-0.1-0.3,0l-1.4,1.8v-1.8c0-0.2-0.1-0.3-0.3-0.3s-0.3,0.1-0.3,0.3v1.8l-1.4-1.8c-0.1-0.1-0.2-0.1-0.3,0&#10;&#9;&#9;c-0.1,0.1-0.1,0.2,0,0.3l1.7,2.1c0,0,0.1,0.1,0.1,0.1v2.1l-0.6-0.7l-0.5,2.1l-1.7-0.6l-1.4-1.2c0,0,0-0.1,0-0.1l-0.5-2.6&#10;&#9;&#9;c0-0.1-0.2-0.2-0.3-0.2c-0.1,0-0.2,0.1-0.2,0.3l0.4,2.2L126,162c-0.1-0.1-0.3-0.1-0.4,0c-0.1,0.1-0.1,0.3,0,0.4l1.4,1.2l-2.3-0.2&#10;&#9;&#9;c-0.1,0-0.2,0.1-0.3,0.2c0,0.1,0.1,0.2,0.2,0.2l2.7,0.2c0.1,0,0.1,0,0.1,0l1.7,1.4l0.5,1.5l-0.4,0.2l-2.6,0c0,0,0-0.1-0.1-0.1&#10;&#9;&#9;l-2.1-1.7c-0.1-0.1-0.3-0.1-0.3,0h0c-0.1,0.1-0.1,0.2,0,0.3l1.8,1.4l-1.9,0c-0.2,0-0.3,0.1-0.3,0.3c0,0.2,0.1,0.3,0.3,0.3l1.9,0&#10;&#9;&#9;l-1.8,1.3c-0.1,0.1-0.1,0.2-0.1,0.3h0c0.1,0.1,0.2,0.1,0.3,0l2.2-1.6c0,0,0.1-0.1,0.1-0.1l1.2,0l-0.2,0.1l1.6,0.9l-1.3,1.7h0.5&#10;&#9;&#9;l-0.9,0.7c0,0-0.1,0-0.1,0l-2.7,0.2c-0.1,0-0.2,0.1-0.2,0.2h0c0,0.1,0.1,0.2,0.3,0.2l2.3-0.1l-1.4,1.2c-0.1,0.1-0.1,0.3,0,0.4&#10;&#9;&#9;c0.1,0.1,0.3,0.1,0.4,0l1.4-1.2l-0.5,2.2c0,0.1,0.1,0.3,0.2,0.3v0c0.1,0,0.3-0.1,0.3-0.2l0.6-2.6c0,0,0-0.1,0-0.1l1.4-1.2h1.3&#10;&#9;&#9;l0.2,2.3l1.2-1.1v1.8c0,0-0.1,0-0.1,0.1l-1.7,2.1c-0.1,0.1-0.1,0.2,0,0.3v0c0.1,0.1,0.3,0.1,0.3,0l1.4-1.8v1.9&#10;&#9;&#9;c0,0.2,0.1,0.3,0.3,0.3s0.3-0.1,0.3-0.3v-1.8l1.4,1.8c0.1,0.1,0.2,0.1,0.3,0v0c0.1-0.1,0.1-0.2,0-0.3l-1.7-2.1c0,0-0.1-0.1-0.1-0.1&#10;&#9;&#9;v-1l0.5,0.7l0.8-2.5l1.6,0.4l0.8,0.7c0,0,0,0.1,0,0.1l0.5,2.6c0,0.1,0.2,0.2,0.3,0.2l0,0c0.1,0,0.2-0.1,0.2-0.3l-0.4-2.2l1.4,1.2&#10;&#9;&#9;c0.1,0.1,0.3,0.1,0.4,0c0.1-0.1,0.1-0.3,0-0.4l-1.4-1.2l2.3,0.2c0.1,0,0.2-0.1,0.3-0.2l0,0c0-0.1-0.1-0.2-0.2-0.2l-2.7-0.2&#10;&#9;&#9;c0,0-0.1,0-0.1,0l-0.3-0.3l-0.7-1.5l1.6-0.5l-1.7-1.2l2.7,0.1c0,0,0,0.1,0.1,0.1l2.1,1.7c0.1,0.1,0.3,0.1,0.3,0&#10;&#9;&#9;c0.1-0.1,0.1-0.2,0-0.3l-1.8-1.4l1.9,0C141.2,168,141.3,167.9,141.3,167.7z" id="el_GwWwCwfO7d"/>
	<path d="M150.1,138.9c0-0.2-0.1-0.3-0.3-0.3l-1.9,0l1.9-1.3c0.1-0.1,0.1-0.2,0.1-0.3c-0.1-0.1-0.2-0.1-0.3,0l-2.2,1.6&#10;&#9;&#9;c0,0-0.1,0.1-0.1,0.1l-2.6,0l1.1-1.8l-2.1,0.2l1.9-1.6c0,0,0.1,0,0.1,0l2.7-0.2c0.1,0,0.2-0.1,0.2-0.2s-0.1-0.2-0.3-0.2l-2.3,0.1&#10;&#9;&#9;l1.4-1.2c0.1-0.1,0.1-0.3,0-0.4c-0.1-0.1-0.3-0.1-0.4,0l-1.4,1.2l0.5-2.2c0-0.1-0.1-0.3-0.2-0.3c-0.1,0-0.3,0.1-0.3,0.2l-0.6,2.6&#10;&#9;&#9;c0,0,0,0.1,0,0.1l-1.6,1.4l0-1.2l-1.8,1.3l-0.4-0.4v-2.8c0,0,0.1,0,0.1-0.1l1.7-2.1c0.1-0.1,0.1-0.2,0-0.3s-0.3-0.1-0.3,0l-1.4,1.8&#10;&#9;&#9;v-1.8c0-0.2-0.1-0.3-0.3-0.3s-0.3,0.1-0.3,0.3v1.8l-1.4-1.8c-0.1-0.1-0.2-0.1-0.3,0s-0.1,0.2,0,0.3l1.7,2.1c0,0,0.1,0.1,0.1,0.1&#10;&#9;&#9;v2.1l-0.6-0.7l-0.5,2.1l-1.7-0.6l-1.4-1.2c0,0,0-0.1,0-0.1l-0.5-2.6c0-0.1-0.2-0.2-0.3-0.2c-0.1,0-0.2,0.1-0.2,0.3l0.4,2.2&#10;&#9;&#9;l-1.4-1.2c-0.1-0.1-0.3-0.1-0.4,0c-0.1,0.1-0.1,0.3,0,0.4l1.4,1.2l-2.3-0.2c-0.1,0-0.2,0.1-0.3,0.2c0,0.1,0.1,0.2,0.2,0.2l2.7,0.2&#10;&#9;&#9;c0.1,0,0.1,0,0.1,0l1.7,1.4l0.5,1.5l-0.4,0.2l-2.6,0c0,0,0-0.1-0.1-0.1l-2.1-1.7c-0.1-0.1-0.3-0.1-0.3,0l0,0&#10;&#9;&#9;c-0.1,0.1-0.1,0.2,0,0.3l1.8,1.4l-1.9,0c-0.2,0-0.3,0.1-0.3,0.3s0.1,0.3,0.3,0.3l1.9,0l-1.8,1.3c-0.1,0.1-0.1,0.2-0.1,0.3l0,0&#10;&#9;&#9;c0.1,0.1,0.2,0.1,0.3,0l2.2-1.6c0,0,0.1-0.1,0.1-0.1l1.2,0l-0.2,0.1l1.6,0.9l-1.3,1.7h0.5l-0.9,0.7c0,0-0.1,0-0.1,0l-2.7,0.2&#10;&#9;&#9;c-0.1,0-0.2,0.1-0.2,0.2l0,0c0,0.1,0.1,0.2,0.3,0.2l2.3-0.1l-1.4,1.2c-0.1,0.1-0.1,0.3,0,0.4s0.3,0.1,0.4,0l1.4-1.2l-0.5,2.2&#10;&#9;&#9;c0,0.1,0.1,0.3,0.2,0.3l0,0c0.1,0,0.3-0.1,0.3-0.2l0.6-2.6c0,0,0-0.1,0-0.1l1.4-1.2h1.3l0.2,2.3l1.2-1.1v1.8c0,0-0.1,0-0.1,0.1&#10;&#9;&#9;l-1.7,2.1c-0.1,0.1-0.1,0.2,0,0.3l0,0c0.1,0.1,0.3,0.1,0.3,0l1.4-1.8v1.9c0,0.2,0.1,0.3,0.3,0.3s0.3-0.1,0.3-0.3v-1.8l1.4,1.8&#10;&#9;&#9;c0.1,0.1,0.2,0.1,0.3,0l0,0c0.1-0.1,0.1-0.2,0-0.3l-1.7-2.1c0,0-0.1-0.1-0.1-0.1v-1l0.5,0.7l0.8-2.5l1.6,0.4l0.8,0.7&#10;&#9;&#9;c0,0,0,0.1,0,0.1l0.5,2.6c0,0.1,0.2,0.2,0.3,0.2h0c0.1,0,0.2-0.1,0.2-0.3l-0.4-2.2l1.4,1.2c0.1,0.1,0.3,0.1,0.4,0&#10;&#9;&#9;c0.1-0.1,0.1-0.3,0-0.4L146,143l2.3,0.2c0.1,0,0.2-0.1,0.3-0.2v0c0-0.1-0.1-0.2-0.2-0.2l-2.7-0.2c0,0-0.1,0-0.1,0l-0.3-0.3&#10;&#9;&#9;l-0.7-1.5l1.6-0.5l-1.7-1.2l2.7,0.1c0,0,0,0.1,0.1,0.1l2.1,1.7c0.1,0.1,0.3,0.1,0.3,0c0.1-0.1,0.1-0.2,0-0.3l-1.8-1.4l1.9,0&#10;&#9;&#9;C149.9,139.2,150.1,139.1,150.1,138.9z" id="el_xMKZe4KyOF"/>
	<path d="M180.8,84.4c0-0.2-0.1-0.3-0.3-0.3l-1.9,0l1.9-1.3c0.1-0.1,0.1-0.2,0.1-0.3c-0.1-0.1-0.2-0.1-0.3,0l-2.2,1.6&#10;&#9;&#9;c0,0-0.1,0.1-0.1,0.1l-2.6,0l1.1-1.8l-2.1,0.2l1.9-1.6c0,0,0.1,0,0.1,0l2.7-0.2c0.1,0,0.2-0.1,0.2-0.2c0-0.1-0.1-0.2-0.3-0.2&#10;&#9;&#9;l-2.3,0.1l1.4-1.2c0.1-0.1,0.1-0.3,0-0.4c-0.1-0.1-0.3-0.1-0.4,0l-1.4,1.2l0.5-2.2c0-0.1-0.1-0.3-0.2-0.3c-0.1,0-0.3,0.1-0.3,0.2&#10;&#9;&#9;l-0.6,2.6c0,0,0,0.1,0,0.1l-1.6,1.4l0-1.2l-1.8,1.3l-0.4-0.4v-2.8c0,0,0.1,0,0.1-0.1l1.7-2.1c0.1-0.1,0.1-0.2,0-0.3&#10;&#9;&#9;c-0.1-0.1-0.3-0.1-0.3,0l-1.4,1.8v-1.8c0-0.2-0.1-0.3-0.3-0.3c-0.2,0-0.3,0.1-0.3,0.3v1.8l-1.4-1.8c-0.1-0.1-0.2-0.1-0.3,0&#10;&#9;&#9;c-0.1,0.1-0.1,0.2,0,0.3l1.7,2.1c0,0,0.1,0.1,0.1,0.1v2.1l-0.6-0.7l-0.5,2.1l-1.7-0.6l-1.4-1.2c0,0,0-0.1,0-0.1l-0.5-2.6&#10;&#9;&#9;c0-0.1-0.2-0.2-0.3-0.2c-0.1,0-0.2,0.1-0.2,0.3l0.4,2.2l-1.4-1.2c-0.1-0.1-0.3-0.1-0.4,0c-0.1,0.1-0.1,0.3,0,0.4l1.4,1.2l-2.3-0.2&#10;&#9;&#9;c-0.1,0-0.2,0.1-0.3,0.2c0,0.1,0.1,0.2,0.2,0.2l2.7,0.2c0.1,0,0.1,0,0.1,0l1.7,1.4l0.5,1.5l-0.4,0.2l-2.6,0c0,0,0-0.1-0.1-0.1&#10;&#9;&#9;L164,82c-0.1-0.1-0.3-0.1-0.3,0h0c-0.1,0.1-0.1,0.2,0,0.3l1.8,1.4l-1.9,0c-0.2,0-0.3,0.1-0.3,0.3c0,0.2,0.1,0.3,0.3,0.3l1.9,0&#10;&#9;&#9;l-1.8,1.3c-0.1,0.1-0.1,0.2-0.1,0.3l0,0c0.1,0.1,0.2,0.1,0.3,0l2.2-1.6c0,0,0.1-0.1,0.1-0.1l1.2,0l-0.2,0.1l1.6,0.9l-1.3,1.7h0.5&#10;&#9;&#9;l-0.9,0.7c0,0-0.1,0-0.1,0l-2.7,0.2c-0.1,0-0.2,0.1-0.2,0.2h0c0,0.1,0.1,0.2,0.3,0.2l2.3-0.1l-1.4,1.2c-0.1,0.1-0.1,0.3,0,0.4&#10;&#9;&#9;c0.1,0.1,0.3,0.1,0.4,0l1.4-1.2l-0.5,2.2c0,0.1,0.1,0.3,0.2,0.3l0,0c0.1,0,0.3-0.1,0.3-0.2l0.6-2.6c0,0,0-0.1,0-0.1l1.4-1.2h1.3&#10;&#9;&#9;l0.2,2.3l1.2-1.1v1.8c0,0-0.1,0-0.1,0.1l-1.7,2.1c-0.1,0.1-0.1,0.2,0,0.3l0,0c0.1,0.1,0.3,0.1,0.3,0l1.4-1.8v1.9&#10;&#9;&#9;c0,0.2,0.1,0.3,0.3,0.3c0.2,0,0.3-0.1,0.3-0.3v-1.8l1.4,1.8c0.1,0.1,0.2,0.1,0.3,0l0,0c0.1-0.1,0.1-0.2,0-0.3l-1.7-2.1&#10;&#9;&#9;c0,0-0.1-0.1-0.1-0.1v-1l0.5,0.7l0.8-2.5l1.6,0.4l0.8,0.7c0,0,0,0.1,0,0.1l0.5,2.6c0,0.1,0.2,0.2,0.3,0.2l0,0&#10;&#9;&#9;c0.1,0,0.2-0.1,0.2-0.3l-0.4-2.2l1.4,1.2c0.1,0.1,0.3,0.1,0.4,0s0.1-0.3,0-0.4l-1.4-1.2l2.3,0.2c0.1,0,0.2-0.1,0.3-0.2v0&#10;&#9;&#9;c0-0.1-0.1-0.2-0.2-0.2l-2.7-0.2c0,0-0.1,0-0.1,0l-0.3-0.3l-0.7-1.5l1.6-0.5l-1.7-1.2l2.7,0.1c0,0,0,0.1,0.1,0.1l2.1,1.7&#10;&#9;&#9;c0.1,0.1,0.3,0.1,0.3,0c0.1-0.1,0.1-0.2,0-0.3l-1.8-1.4l1.9,0C180.6,84.7,180.8,84.5,180.8,84.4z" id="el_-gKP-hWbDR"/>
	<path d="M135,202.2c0-0.2-0.1-0.3-0.3-0.3l-1.9,0l1.9-1.3c0.1-0.1,0.1-0.2,0.1-0.3c-0.1-0.1-0.2-0.1-0.3,0l-2.2,1.6&#10;&#9;&#9;c0,0-0.1,0.1-0.1,0.1l-2.6,0l1.1-1.8l-2.1,0.2l1.9-1.6c0,0,0.1,0,0.1,0l2.7-0.2c0.1,0,0.2-0.1,0.2-0.2c0-0.1-0.1-0.2-0.3-0.2&#10;&#9;&#9;l-2.3,0.1l1.4-1.2c0.1-0.1,0.1-0.3,0-0.4c-0.1-0.1-0.3-0.1-0.4,0l-1.4,1.2l0.5-2.2c0-0.1-0.1-0.3-0.2-0.3c-0.1,0-0.3,0.1-0.3,0.2&#10;&#9;&#9;l-0.6,2.6c0,0,0,0.1,0,0.1l-1.6,1.4l0-1.2l-1.8,1.3l-0.4-0.4v-2.8c0,0,0.1,0,0.1-0.1l1.7-2.1c0.1-0.1,0.1-0.2,0-0.3s-0.3-0.1-0.3,0&#10;&#9;&#9;l-1.4,1.8v-1.8c0-0.2-0.1-0.3-0.3-0.3s-0.3,0.1-0.3,0.3v1.8l-1.4-1.8c-0.1-0.1-0.2-0.1-0.3,0s-0.1,0.2,0,0.3l1.7,2.1&#10;&#9;&#9;c0,0,0.1,0.1,0.1,0.1v2.1l-0.6-0.7l-0.5,2.1l-1.7-0.6l-1.4-1.2c0,0,0-0.1,0-0.1l-0.5-2.6c0-0.1-0.2-0.2-0.3-0.2&#10;&#9;&#9;c-0.1,0-0.2,0.1-0.2,0.3l0.4,2.2l-1.4-1.2c-0.1-0.1-0.3-0.1-0.4,0s-0.1,0.3,0,0.4l1.4,1.2l-2.3-0.2c-0.1,0-0.2,0.1-0.3,0.2&#10;&#9;&#9;c0,0.1,0.1,0.2,0.2,0.2l2.7,0.2c0.1,0,0.1,0,0.1,0l1.7,1.4l0.5,1.5l-0.4,0.2l-2.6,0c0,0,0-0.1-0.1-0.1l-2.1-1.7&#10;&#9;&#9;c-0.1-0.1-0.3-0.1-0.3,0h0c-0.1,0.1-0.1,0.2,0,0.3l1.8,1.4l-1.9,0c-0.2,0-0.3,0.1-0.3,0.3c0,0.2,0.1,0.3,0.3,0.3l1.9,0l-1.8,1.3&#10;&#9;&#9;c-0.1,0.1-0.1,0.2-0.1,0.3h0c0.1,0.1,0.2,0.1,0.3,0l2.2-1.6c0,0,0.1-0.1,0.1-0.1l1.2,0l-0.2,0.1l1.6,0.9l-1.3,1.7h0.5l-0.9,0.7&#10;&#9;&#9;c0,0-0.1,0-0.1,0l-2.7,0.2c-0.1,0-0.2,0.1-0.2,0.2h0c0,0.1,0.1,0.2,0.3,0.2l2.3-0.1l-1.4,1.2c-0.1,0.1-0.1,0.3,0,0.4&#10;&#9;&#9;c0.1,0.1,0.3,0.1,0.4,0l1.4-1.2l-0.5,2.2c0,0.1,0.1,0.3,0.2,0.3v0c0.1,0,0.3-0.1,0.3-0.2l0.6-2.6c0,0,0-0.1,0-0.1l1.4-1.2h1.3&#10;&#9;&#9;l0.2,2.3l1.2-1.1v1.8c0,0-0.1,0-0.1,0.1l-1.7,2.1c-0.1,0.1-0.1,0.2,0,0.3v0c0.1,0.1,0.3,0.1,0.3,0l1.4-1.8v1.9&#10;&#9;&#9;c0,0.2,0.1,0.3,0.3,0.3s0.3-0.1,0.3-0.3v-1.8l1.4,1.8c0.1,0.1,0.2,0.1,0.3,0v0c0.1-0.1,0.1-0.2,0-0.3l-1.7-2.1c0,0-0.1-0.1-0.1-0.1&#10;&#9;&#9;v-1l0.5,0.7l0.8-2.5l1.6,0.4l0.8,0.7c0,0,0,0.1,0,0.1l0.5,2.6c0,0.1,0.2,0.2,0.3,0.2l0,0c0.1,0,0.2-0.1,0.2-0.3l-0.4-2.2l1.4,1.2&#10;&#9;&#9;c0.1,0.1,0.3,0.1,0.4,0c0.1-0.1,0.1-0.3,0-0.4l-1.4-1.2l2.3,0.2c0.1,0,0.2-0.1,0.3-0.2l0,0c0-0.1-0.1-0.2-0.2-0.2l-2.7-0.2&#10;&#9;&#9;c0,0-0.1,0-0.1,0l-0.3-0.3l-0.7-1.5l1.6-0.5l-1.7-1.2l2.7,0.1c0,0,0,0.1,0.1,0.1l2.1,1.7c0.1,0.1,0.3,0.1,0.3,0&#10;&#9;&#9;c0.1-0.1,0.1-0.2,0-0.3l-1.8-1.4l1.9,0C134.9,202.5,135,202.4,135,202.2z" id="el_Ou0UX1sPWQ"/>
	<path d="M92.6,96.2c0-0.2-0.1-0.3-0.3-0.3l-1.9,0l1.9-1.3c0.1-0.1,0.1-0.2,0.1-0.3c-0.1-0.1-0.2-0.1-0.3,0l-2.2,1.6&#10;&#9;&#9;c0,0-0.1,0.1-0.1,0.1l-2.6,0l1.1-1.8l-2.1,0.2l1.9-1.6c0,0,0.1,0,0.1,0l2.7-0.2c0.1,0,0.2-0.1,0.2-0.2c0-0.1-0.1-0.2-0.3-0.2&#10;&#9;&#9;l-2.3,0.1L90,91c0.1-0.1,0.1-0.3,0-0.4s-0.3-0.1-0.4,0l-1.4,1.2l0.5-2.2c0-0.1-0.1-0.3-0.2-0.3c-0.1,0-0.3,0.1-0.3,0.2L87.6,92&#10;&#9;&#9;c0,0,0,0.1,0,0.1L86,93.5l0-1.2l-1.8,1.3l-0.4-0.4v-2.8c0,0,0.1,0,0.1-0.1l1.7-2.1c0.1-0.1,0.1-0.2,0-0.3c-0.1-0.1-0.3-0.1-0.3,0&#10;&#9;&#9;l-1.4,1.8v-1.8c0-0.2-0.1-0.3-0.3-0.3s-0.3,0.1-0.3,0.3v1.8l-1.4-1.8c-0.1-0.1-0.2-0.1-0.3,0c-0.1,0.1-0.1,0.2,0,0.3l1.7,2.1&#10;&#9;&#9;c0,0,0.1,0.1,0.1,0.1v2.1l-0.6-0.7l-0.5,2.1l-1.7-0.6l-1.4-1.2c0,0,0-0.1,0-0.1l-0.5-2.6c0-0.1-0.2-0.2-0.3-0.2&#10;&#9;&#9;c-0.1,0-0.2,0.1-0.2,0.3l0.4,2.2l-1.4-1.2c-0.1-0.1-0.3-0.1-0.4,0c-0.1,0.1-0.1,0.3,0,0.4l1.4,1.2L75.9,92c-0.1,0-0.2,0.1-0.3,0.2&#10;&#9;&#9;c0,0.1,0.1,0.2,0.2,0.2l2.7,0.2c0.1,0,0.1,0,0.1,0l1.7,1.4l0.5,1.5l-0.4,0.2l-2.6,0c0,0,0-0.1-0.1-0.1l-2.1-1.7&#10;&#9;&#9;c-0.1-0.1-0.3-0.1-0.3,0h0c-0.1,0.1-0.1,0.2,0,0.3l1.8,1.4l-1.9,0c-0.2,0-0.3,0.1-0.3,0.3c0,0.2,0.1,0.3,0.3,0.3l1.9,0l-1.8,1.3&#10;&#9;&#9;c-0.1,0.1-0.1,0.2-0.1,0.3h0c0.1,0.1,0.2,0.1,0.3,0l2.2-1.6c0,0,0.1-0.1,0.1-0.1l1.2,0l-0.2,0.1l1.6,0.9l-1.3,1.7h0.5l-0.9,0.7&#10;&#9;&#9;c0,0-0.1,0-0.1,0l-2.7,0.2c-0.1,0-0.2,0.1-0.2,0.2h0c0,0.1,0.1,0.2,0.3,0.2l2.3-0.1l-1.4,1.2c-0.1,0.1-0.1,0.3,0,0.4s0.3,0.1,0.4,0&#10;&#9;&#9;l1.4-1.2l-0.5,2.2c0,0.1,0.1,0.3,0.2,0.3l0,0c0.1,0,0.3-0.1,0.3-0.2l0.6-2.6c0,0,0-0.1,0-0.1l1.4-1.2h1.3l0.2,2.3l1.2-1.1v1.8&#10;&#9;&#9;c0,0-0.1,0-0.1,0.1l-1.7,2.1c-0.1,0.1-0.1,0.2,0,0.3l0,0c0.1,0.1,0.3,0.1,0.3,0l1.4-1.8v1.9c0,0.2,0.1,0.3,0.3,0.3s0.3-0.1,0.3-0.3&#10;&#9;&#9;v-1.8l1.4,1.8c0.1,0.1,0.2,0.1,0.3,0l0,0c0.1-0.1,0.1-0.2,0-0.3L84,102c0,0-0.1-0.1-0.1-0.1v-1l0.5,0.7l0.8-2.5l1.6,0.4l0.8,0.7&#10;&#9;&#9;c0,0,0,0.1,0,0.1l0.5,2.6c0,0.1,0.2,0.2,0.3,0.2l0,0c0.1,0,0.2-0.1,0.2-0.3l-0.4-2.2l1.4,1.2c0.1,0.1,0.3,0.1,0.4,0&#10;&#9;&#9;c0.1-0.1,0.1-0.3,0-0.4l-1.4-1.2l2.3,0.2c0.1,0,0.2-0.1,0.3-0.2v0c0-0.1-0.1-0.2-0.2-0.2l-2.7-0.2c0,0-0.1,0-0.1,0l-0.3-0.3&#10;&#9;&#9;L87,98.1l1.6-0.5l-1.7-1.2l2.7,0.1c0,0,0,0.1,0.1,0.1l2.1,1.7c0.1,0.1,0.3,0.1,0.3,0c0.1-0.1,0.1-0.2,0-0.3l-1.8-1.4l1.9,0&#10;&#9;&#9;C92.4,96.5,92.6,96.3,92.6,96.2z" id="el_GlAeWnUqYZ"/>
</g></g>
<g id="el_Glerl3YTYt">
	<path d="M218.4,88.3c0-2.1-0.3-8.2-4.5-13.9c-0.3-0.4-7.5-9.7-19.1-9.7c-1.7,0-3.3,0.2-4.8,0.5c0-0.8,0.1-1.5,0.1-2.3&#10;&#9;&#9;c0-27.1-22-49.1-49.1-49.1c-17,0-32,8.7-40.8,21.8c-5.1-2.3-10.8-3.5-16.8-3.5c-23,0-41.7,18.7-41.7,41.7c0,5.5,1.1,10,1.9,12.3&#10;&#9;&#9;c4.1,12,13.5,18.3,17,20.5c19.4,0.6,35.8,1,48.3,1.3c21.9,0.5,37.9,0.8,59,0.9c16.9,0,30.9-0.2,40.9-0.4&#10;&#9;&#9;C209.8,107.3,218.4,100,218.4,88.3z" id="el_ii2Xwmma1X"/>
</g>
</svg>